<?xml version="1.0" encoding="UTF-8"?><svg id="Layer_2" xmlns="http://www.w3.org/2000/svg" viewBox="0 0 69.72 62.35"><defs><style>.cls-1{fill:#c65726;}.cls-2{fill:#37474f;}.cls-3{fill:#455a64;}.cls-4{fill:#a6a6a6;}.cls-5{fill:#e76f2e;}.cls-6{fill:#ebebeb;}.cls-7{fill:#ffc727;}.cls-8{fill:#263238;}</style></defs><g id="Layer_1-2"><g id="book_stack_table"><polygon class="cls-1" points="38.54 9.49 16.16 9.61 16.2 .01 38.53 0 38.54 9.49"/><rect class="cls-7" x="0" y="9.76" width="56.35" height="14.19"/><rect class="cls-8" x="6.42" y="9.77" width="6.19" height="14.19"/><rect class="cls-8" x="17.4" y="9.77" width="2.3" height="14.19"/><rect class="cls-8" x="42.76" y="9.77" width="6.19" height="14.19"/><rect class="cls-3" x="3.97" y="40.8" width="65.73" height="9.92"/><rect class="cls-2" x="10.14" y="42.83" width="25.28" height="5.95"/><polygon class="cls-5" points="38.54 9.49 16.16 9.61 18.81 2.73 41.17 2.17 38.54 9.49"/><rect class="cls-7" x="9.29" y="23.96" width="49.93" height="16.84"/><rect class="cls-3" x="49.27" y="23.95" width="4.65" height="16.84"/><rect class="cls-3" x="44.41" y="23.96" width="1.8" height="16.84"/><rect class="cls-4" x="3.98" y="50.72" width="65.74" height="11.63"/><rect class="cls-6" x="58.5" y="50.72" width="5.24" height="11.63"/><rect class="cls-6" x="15.57" y="50.72" width="5.24" height="11.63"/><rect class="cls-6" x="24.41" y="50.72" width="2.03" height="11.63"/></g></g></svg>