<?xml version="1.0" encoding="UTF-8"?><svg id="Layer_2" xmlns="http://www.w3.org/2000/svg" viewBox="0 0 97.86 105.1"><defs><style>.cls-1{fill:#ffc727;}.cls-2{fill:none;}.cls-3{isolation:isolate;opacity:.1;}.cls-4{fill:#263238;}</style></defs><g id="Layer_1-2"><g id="sleep_Zs"><path d="m43.83,11.43c.12.05.23.13.34.26.11.12.2.25.26.39.07.14.1.25.1.34,0,.22-.09.46-.26.7-.17.24-.39.48-.66.71-.27.24-.55.46-.86.68-.3.22-.59.42-.86.61-.27.19-.49.35-.66.49s-.25.25-.25.33c0,.14.1.2.31.2.4,0,.78-.02,1.15-.05.37-.03.7-.06,1-.1.3-.03.54-.05.72-.05.14,0,.25.02.34.05s.13.11.13.22c0,.1-.08.21-.24.31-.16.1-.37.19-.63.26-.26.07-.55.13-.86.19-.31.05-.62.09-.94.12-.31.03-.6.04-.85.04-.19,0-.37-.04-.53-.11s-.31-.17-.44-.29-.23-.24-.3-.37c-.07-.12-.11-.24-.11-.34,0-.15.09-.33.28-.53.19-.2.43-.42.72-.66.29-.24.6-.47.93-.71.33-.24.64-.46.94-.68s.54-.41.72-.58c.18-.17.28-.31.28-.41,0-.09-.1-.15-.31-.18-.21-.03-.51-.05-.91-.05-.19,0-.37.01-.52.03-.16.02-.3.04-.44.07s-.29.04-.44.04c-.09,0-.18-.04-.28-.13-.1-.08-.18-.18-.25-.29-.07-.11-.1-.2-.1-.27,0-.15.18-.27.53-.35.35-.08.84-.13,1.45-.13.35,0,.66.03.92.08.26.05.45.11.58.16Z"/><path d="m44.35,3.82c.08.03.16.09.23.17.07.08.13.17.18.26.04.09.07.17.07.22,0,.15-.06.3-.17.46-.11.16-.26.32-.44.48s-.37.31-.57.46c-.2.15-.39.28-.58.41-.18.12-.33.23-.44.33-.11.09-.17.17-.17.22,0,.09.07.14.21.14.27,0,.52-.01.77-.03s.47-.04.66-.06.36-.03.48-.03c.09,0,.17.01.22.04s.09.07.09.15c0,.07-.05.14-.16.2s-.25.12-.42.17c-.17.05-.36.09-.57.12s-.42.06-.62.08-.4.03-.57.03c-.13,0-.25-.02-.36-.08s-.21-.12-.29-.2-.15-.16-.2-.24c-.05-.08-.07-.16-.07-.23,0-.1.06-.22.19-.36.12-.14.29-.28.48-.44.19-.16.4-.31.62-.47s.43-.31.62-.45.36-.27.48-.39c.12-.11.18-.21.18-.28,0-.06-.07-.1-.21-.12-.14-.02-.34-.03-.61-.03-.13,0-.24,0-.35.02-.1.01-.2.03-.3.04-.09.02-.19.02-.29.02-.06,0-.12-.03-.18-.08-.06-.06-.12-.12-.16-.19-.04-.07-.07-.13-.07-.18,0-.1.12-.18.35-.24.23-.06.56-.08.97-.08.23,0,.44.02.61.05.17.03.3.07.39.11Z"/><path d="m49.44,3.26s.1.06.14.11c.04.05.08.11.11.16s.04.1.04.14c0,.09-.04.19-.11.29-.07.1-.16.2-.27.3-.11.1-.23.19-.36.29-.13.09-.25.18-.36.25s-.21.15-.28.21c-.07.06-.1.1-.1.14,0,.06.04.08.13.08.17,0,.33,0,.48-.02.15-.01.29-.03.42-.04.12-.01.22-.02.3-.02.06,0,.1,0,.14.02.04.01.05.05.05.09,0,.04-.03.09-.1.13-.07.04-.15.08-.26.11-.11.03-.23.06-.36.08-.13.02-.26.04-.39.05s-.25.02-.36.02c-.08,0-.15-.02-.22-.05s-.13-.07-.18-.12c-.05-.05-.09-.1-.12-.15-.03-.05-.04-.1-.04-.14,0-.06.04-.14.12-.22.08-.08.18-.18.3-.27.12-.1.25-.2.39-.29s.27-.19.39-.28c.12-.09.22-.17.3-.24.08-.07.12-.13.12-.17,0-.04-.04-.06-.13-.08s-.21-.02-.38-.02c-.08,0-.15,0-.22.01s-.13.02-.18.03c-.06,0-.12.02-.18.02-.04,0-.08-.02-.12-.05s-.07-.07-.1-.12c-.03-.04-.04-.08-.04-.11,0-.06.07-.11.22-.15s.35-.05.6-.05c.15,0,.27.01.38.03s.19.04.24.07Z"/></g><g id="cat_static"><path class="cls-1" d="m39.32,21.04v-.18s-.03-.15-.03-.15l-.06-1v-.1s-.08-.92-.08-.92v-.19c-.24-.63-3.3-3.09-6.45-5.45v.03s.01.03.01.04c0,.04,0,.06.01.09.05.28.09.54.12.77,0,.03.01.05.01.06h0s-4.78-1.63-4.78-1.63l-.15-.05-1.03-.35-.15-.05-6.63-2.27s.01-.01.01-.03h-.01c.13-.28.26-.55.4-.82h0c-3.12.62-6.92,1.74-9.63,3.12,0,.01.01.01.01.01.24.14.42.29.58.41h-.01s.01.03.01.03l-2.35,3.94h0c.14.15.24.28.36.42-.13-.12-.26-.23-.37-.36h-.01s-.54.91-.54.91c.1.09.19.17.28.27-.1-.09-.21-.15-.32-.22h-.01s-4.8,8.1-4.8,8.1c0,0,0-.01-.01-.04,0,0,0-.01-.01-.03,0-.03-.01-.05-.03-.08-.01-.03-.03-.06-.05-.1-.68,2.09-1.15,3.77-1.15,4.27l.06-.04-.05.12.9,1.38.04.05c.63.72,1.55,1.59,2.74,2.35.26,2.04,1.87,6.03,10.26,8.18,11.57,2.96,18.26-8.08,18.26-8.08l-.15-.71c-.08-.01-.14-.01-.23-.01,0,0,4.59-6.19,5.03-11.66.01-.01.01-.04.01-.04Zm-5.15-.14h.01s-.08.01-.08.01c.03,0,.05-.01.06-.01Z"/><path class="cls-1" d="m92.26,52c.12.71-1.35,1.99-3.48,3.41-4.58,3.08-12.26,6.86-13.96,7.13h-.06s-.04.01-.05.01h-.04c-1.94.04-42.56.23-46.7-1.76-6.21-2.99-11.85-12.78-11.85-19.43.01-4.06,5.36-14.57,5.36-14.57-.04-.01-.06-.03-.1-.05l30.02-1.69c4.78.36,10.01,2.83,10.01,2.83,7.16-2.65,11.9-2.89,14.46-1.92,9.81,3.65,15.88,22.76,16.39,26.03Z"/><path class="cls-1" d="m92.26,52c.12.71-1.35,1.99-3.48,3.41-4.58,3.08-12.26,6.86-13.96,7.13h-.06s-.04.01-.05.01h-.04c-1.94.04-42.56.23-46.7-1.76-6.21-2.99-11.85-12.78-11.85-19.43.01-4.06,5.36-14.57,5.36-14.57-.04-.01-.06-.03-.1-.05l30.02-1.69c4.78.36,10.01,2.83,10.01,2.83,7.16-2.65,11.9-2.89,14.46-1.92,9.81,3.65,15.88,22.76,16.39,26.03Z"/><path class="cls-4" d="m61.41,27.89c-2.32,1.17-4.64,2.53-6.96,3.59,2.08-1.61,4.44-2.82,6.96-3.59Z"/><path class="cls-3" d="m13.17,29.05c-.17.71,1.69,1.51,3.79,1.27,2.75-.32,4.01-1.69,3.91-2.09-.16-.68-1.06.12-4.13.43-.89.09-3.45-.14-3.57.39Z"/><path class="cls-3" d="m11.27,33.58c-.33,1.35,3.35,2.9,7.52,2.47,5.45-.57,7.91-3.18,7.74-3.94-.34-1.3-2.43.56-8.09,1.01-2.93.23-6.92-.55-7.16.46Z"/><path class="cls-3" d="m11.19,39.1c-.24,1.46,4.28,2.86,9.15,2.1,6.34-.99,8.99-3.95,8.67-4.75-.54-1.36-2.81.78-9.44,1.66-3.4.46-8.2-.1-8.38.99Z"/><path class="cls-3" d="m83.89,36.88c-.13-.99-2.9-1.1-5.46.25-3.37,1.75-4.31,4.14-3.99,4.6.55.77,1.32-.69,5.08-2.59,1.2-.84,4.68-2.02,4.36-2.26Z"/><path class="cls-3" d="m80.9,31.73c-.16-1.28-3.88-1.41-7.36.36-4.53,2.31-5.82,5.41-5.37,6,.73,1.02,1.93-1.3,6.7-3.59,2.43-1.17,6.16-1.82,6.03-2.78Z"/><path class="cls-3" d="m76.44,27.09c-.28-1.35-4.7-1.05-8.65,1.23-5.19,2.97-6.5,6.43-5.95,7.02.92,1,2.19-1.59,7.65-4.59,2.81-1.53,7.2-2.63,6.95-3.66Z"/><path class="cls-3" d="m45.18,61.49c.46,1.41,4.27.91,7.41-1.67,4.09-3.35,4.69-7.05,4.12-7.64-.97-1.01-1.66,1.79-6,5.16-2.23,1.74-5.88,3.11-5.54,4.16Z"/><path class="cls-3" d="m18.97,47.67c-.06,1.74,5.38,2.68,10.93,1.08,7.21-2.09,9.84-5.91,9.35-6.8-.8-1.5-3.15,1.32-10.7,3.32-3.9,1.03-9.54,1.11-9.59,2.39Z"/><path class="cls-3" d="m32.89,60.35c.28,1.61,5.28,1.48,9.88-.99,5.99-3.25,7.59-7.27,6.99-7.99-1.02-1.24-2.54,1.79-8.84,5.03-3.24,1.66-8.2,2.75-8.03,3.96Z"/><path class="cls-3" d="m22.36,54.25c-.06,1.93,6.02,3.03,12.22,1.2,8.07-2.34,10.32-6.9,9.77-7.87-.93-1.68-3.37,1.07-11.29,3.99-4.22,1.55-10.66,1.23-10.7,2.68Z"/><path class="cls-1" d="m73.25,60.07c.51-1.84-3.97-7.86-4.88-11.96s2.74-8.09,4.99-7.99c3.73.15,12.06,6.87,15.74,16.03,3.67,9.16,8.59,27.44,7.83,36.67-.76,9.23-6.34,11.56-10.15,11.26-4.82-.37-8.33-6.7-8.92-16.01-.39-6.16-.48-15.9-1.06-22.17l-3.55-5.83Z"/><path class="cls-1" d="m28.07,12.37l-.67-.22-.67-.22-6.62-2.28s-.01.01-.01.03l6.63,2.27.15.05,1.03.35.15.05,4.78,1.64h0s-4.78-1.67-4.78-1.67Zm-18.95,3.96l2.35-3.94h-.01s-2.33,3.94-2.33,3.94Zm-.58.96h.01s.54-.88.54-.88h.01s-.01-.03-.01-.03l-.55.91Zm-4.85,8.13s.01.04.01.04l4.8-8.09-4.8,8.07h-.01Zm23.2-13.45l.51.18.51.18"/><path class="cls-1" d="m32.71,13.1h-.01c-1.4-1.04-2.78-2.04-4-2.87-.1-.06-.19-.12-.28-.19-.44-.28-.83-.54-1.19-.77-.1-.08-.21-.13-.31-.19-.53-.32-.95-.55-1.22-.64-.67-.26-2.69-.06-5.17.44.01-.01.01-.04.03-.05C23.41,3.11,29.34.08,29.95.83c.21.26.51,1.35.87,2.83.01.01.01.04.03.06.24,1.05.51,2.28.77,3.55,0,.03.01.04.01.06.42,2.05.81,4.18,1.06,5.69v.03s.01.03.01.04Z"/><path class="cls-1" d="m32.85,14.03h0s-4.78-1.63-4.78-1.63l-.15-.05-1.03-.35-.15-.05-6.63-2.27s.01-.01.01-.03c.13-.27.24-.55.38-.82.01,0,.04-.01.05-.01,2.46-.49,4.45-.68,5.13-.44.26.1.68.32,1.22.65.09.06.19.12.29.18.37.23.77.5,1.21.78.09.06.18.13.28.19,1.22.82,2.62,1.83,4.01,2.87v.04h.01s0,.06.01.09c.05.28.09.54.12.77,0,.03.01.05.01.06Z"/><path class="cls-1" d="m11.46,12.4l-2.35,3.94h0s-.01.06-.01.06h-.01s-.54.91-.54.91h-.01s-.03.05-.03.05h-.01s-4.8,8.1-4.8,8.1c0,0,0-.01-.01-.04,0,0,0-.01-.01-.03,0-.01-.01-.04-.03-.08-.01-.03-.03-.06-.05-.1h0c.91-2.85,2.19-6.4,3.19-8.76.04-.1.08-.19.12-.28.18-.41.35-.78.5-1.09.04-.08.08-.15.12-.24.1-.19.19-.36.27-.5.51-.83,1.64-1.64,3.09-2.39.23.17.41.29.56.42h.01Z"/><path class="cls-1" d="m10.89,11.96c-1.45.74-2.58,1.55-3.09,2.39-.08.14-.17.31-.27.5-.04.09-.08.17-.12.24-.15.31-.32.68-.5,1.09-.04.09-.08.18-.12.28-1,2.36-2.28,5.91-3.19,8.75-.5-1.09-2.42-5.5-2.62-7.07-.09-.76-.22-2.71-.27-4.73v-.19c-.05-2.76.08-5.58.69-5.76,1.01-.27,7.1,2.89,9.46,4.49,0,.01.01.01.01.01Z"/><path class="cls-4" d="m88.75,104.27c-5.46.76-8.33-4.51-9.73-8.97-2.8-9.28-.92-12.38-1.85-21.86-.4-4.73-1.12-6.57-2.53-11.13,2.08,2.38,2.44,2.84,3.14,11.08.4,4.74.13,2.92.17,7.67.23,6.9.47,14.62,4.65,20.41,1.43,1.93,3.75,2.99,6.15,2.81h0Z"/></g><rect class="cls-2" width="97.86" height="105.1"/></g></svg>