<?xml version="1.0" encoding="UTF-8"?><svg id="Layer_2" xmlns="http://www.w3.org/2000/svg" viewBox="0 0 94.75 93.1"><defs><style>.cls-1{fill:#fff;}.cls-2{font-family:IndieFlower, 'Indie Flower';font-size:12px;}.cls-3{fill:#ff9bbc;}.cls-4{fill:#ffc727;}.cls-5{isolation:isolate;opacity:.1;}.cls-6{fill:#263238;}</style></defs><g id="Layer_1-2"><g id="cat_hover"><path class="cls-4" d="m36.37,26.61c-.46-3.54-2.24-13.44-2.92-14.29s-7.73,2.67-10.7,9.39l13.62,4.9Z"/><path class="cls-3" d="m35.58,26.33c-.34-2.9-1.69-10.93-2.17-11.61s-5.84,2.42-8.05,7.92l10.22,3.69Z"/><path class="cls-4" d="m31.12,25.83c-.22-2.16.47-4.64,2.36-5.87.62-.41,1.33-.67,2.07-.75-.17.07-.34.13-.51.19-.17.05-.34.12-.49.22-2.34,1.09-3.2,3.78-3.43,6.19v.03Z"/><path class="cls-4" d="m30.04,25.77c-.81-3.57.35-7.73,3.44-9.86.43-.29.89-.56,1.36-.79-3.73,2.35-5.15,6.39-4.8,10.65Z"/><path class="cls-4" d="m13.41,24.48c-1.72-1.49-9.52-5.77-10.71-5.46s-.84,9.54-.63,11.47c.2,1.93,2.8,7.91,2.8,7.91l8.55-13.91Z"/><path class="cls-3" d="m13.17,24.86c-1.37-1.18-7.28-4.78-8.21-4.53s-.66,7.55-.5,9.07c.16,1.52,2.14,6.18,2.14,6.18l6.57-10.72Z"/><path class="cls-4" d="m10.5,30.03c-1.96-1.41-4.56-2.53-6.91-1.49-.17.06-.33.13-.49.22-.16.09-.31.18-.48.26.54-.51,1.19-.88,1.9-1.09,2.18-.6,4.48.51,5.97,2.09h0Z"/><path class="cls-4" d="m11.2,29.17c-2.99-3.07-6.97-4.65-11.2-3.4.49-.2.98-.37,1.49-.5,3.64-.92,7.53.95,9.7,3.9Z"/><path class="cls-4" d="m3.44,42.72c0,.61,2.1,3.54,5.73,5.28,0,0-5.27,9.97-5.34,13.86-.1,6.35,5.15,15.82,11.05,18.77,3.94,1.97,42.83,2.38,44.67,2.38s17.31-7.66,17-9.85c-.44-3.14-5.97-21.51-15.31-25.16-2.44-.96-6.99-.81-13.87,1.63,0,0-5.16-2.54-9.79-2.89,0,0,6.8-8.89,5.46-15.18-.25-1.19-12.21-10.33-14.3-11.14s-16.85,2.24-19.32,6.12c-1.52,2.4-5.97,14.65-5.99,16.19Z"/><path class="cls-4" d="m3.44,42.72c0,.61,2.1,3.54,5.73,5.28,0,0-5.27,9.97-5.34,13.86-.1,6.35,5.15,15.82,11.05,18.77,3.94,1.97,42.83,2.38,44.67,2.38s17.31-7.66,17-9.85c-.44-3.14-5.97-21.51-15.31-25.16-2.44-.96-6.99-.81-13.87,1.63,0,0-5.16-2.54-9.79-2.89,0,0,6.8-8.89,5.46-15.18-.25-1.19-12.21-10.33-14.3-11.14s-16.85,2.24-19.32,6.12c-1.52,2.4-5.97,14.65-5.99,16.19Z"/><path class="cls-6" d="m47.38,49.62c-2.24,1.09-4.48,2.35-6.72,3.33,2.02-1.51,4.29-2.64,6.72-3.33Z"/><path class="cls-5" d="m9.17,49.47c-.26,1,2.34,2.16,5.32,1.87,3.88-.39,5.7-2.3,5.56-2.86-.22-.96-1.49.15-5.84.52-1.25.11-4.86-.27-5.05.47Z"/><path class="cls-5" d="m6.62,54.21c-.34,1.29,3.16,2.82,7.16,2.47,5.23-.46,7.62-2.93,7.46-3.66-.31-1.25-2.34.5-7.76.85-2.81.18-6.61-.63-6.86.34Z"/><path class="cls-5" d="m5.34,60.75c-.25,1.4,4.05,2.8,8.73,2.14,6.08-.86,8.66-3.65,8.37-4.42-.5-1.31-2.7.7-9.06,1.45-3.26.39-7.85-.22-8.03.83Z"/><path class="cls-5" d="m68.77,58.57c-.11-.95-2.76-1.1-5.23.16-3.25,1.63-4.19,3.9-3.89,4.34.52.75,1.28-.64,4.9-2.4,1.04-.52,4.29-1.39,4.21-2.1Z"/><path class="cls-5" d="m65.99,53.59c-.13-1.23-3.69-1.4-7.05.24-4.37,2.14-5.65,5.09-5.23,5.67.68.99,1.87-1.22,6.46-3.34,2.34-1.08,5.92-1.65,5.81-2.57Z"/><path class="cls-5" d="m61.78,49.08c-.25-1.3-4.48-1.07-8.3,1.05-5.01,2.77-6.31,6.06-5.8,6.64.87.97,2.12-1.49,7.39-4.28,2.72-1.43,6.93-2.41,6.71-3.4Z"/><path class="cls-5" d="m31.35,81.55c.42,1.36,4.08.93,7.12-1.49,3.96-3.15,4.6-6.68,4.06-7.26-.92-.99-1.62,1.69-5.82,4.85-2.16,1.63-5.67,2.89-5.36,3.9Z"/><path class="cls-5" d="m6.47,67.93c-.08,1.66,5.11,2.64,10.45,1.19,6.93-1.9,9.5-5.52,9.05-6.37-.75-1.45-3.04,1.22-10.29,3.02-3.75.93-9.14.92-9.21,2.15Z"/><path class="cls-5" d="m19.61,80.27c.25,1.55,5.03,1.49,9.47-.81,5.78-3.02,7.37-6.84,6.81-7.55-.96-1.2-2.46,1.67-8.54,4.68-3.13,1.54-7.89,2.52-7.74,3.67Z"/><path class="cls-5" d="m9.62,74.28c-.09,1.85,5.72,2.99,11.67,1.33,7.76-2.12,9.98-6.45,9.47-7.39-.87-1.62-3.24.98-10.86,3.65-4.06,1.43-10.22,1.02-10.29,2.41Z"/><path class="cls-4" d="m76.56,73.15c1.67.75,7.28-1.32,11.29-1.6s7.27,3.73,6.86,5.85c-.66,3.52-8.21,10.45-17.4,12.64-9.19,2.19-27.19,4.26-35.83,2.24-8.64-2.02-10.05-7.64-9.23-11.2,1.03-4.52,7.52-6.94,16.42-6.19,5.89.5,16.16,2.29,22.18,2.63l5.7-4.37Z"/><path class="cls-6" d="m32.1,82.32c.19-5.28,5.65-7.1,10.08-7.67,9.21-1.08,18.15,1.88,27.25,2.59,4.52.41,9.1.85,13.63.28-4.48.87-9.14.6-13.68.31s-9.1-1.04-13.59-1.8c-6.54-.94-13.86-2.01-20.01.97-2.06,1.03-3.44,3.04-3.68,5.32h0Z"/><path class="cls-1" d="m28.61,33.83c-3.35.5-4.28,4.04-4.58,4.4s-4.2,6.23-2.46,9.08c1.37.17,2.74.24,4.12.22,1.87-.07,8.92-.91,11.54-.84,0,0,1.31-7.58-2.84-9.97-.01,0-2.05-3.45-5.79-2.89Z"/><path class="cls-6" d="m37.6,46.73c-3.79.18-7.46.84-11.26,1.2-2.29.12-4.59-.11-6.81-.69,1.9.07,3.73.17,5.64.08,4.12-.38,8.29-1.22,12.44-.59h0Z"/><path class="cls-6" d="m33.08,29.92c1.16-.39,2.14.57,2.6,1.93.37,1.1.06,2.46-1.05,2.84s-2.24-.75-2.61-1.74-.2-2.61,1.06-3.02Z"/><path class="cls-6" d="m19.81,33.45c-1.76.07-2.61,1.46-2.55,3.04.08,1.46,1.33,2.58,2.8,2.5.01,0,.03,0,.04,0,1.5-.09,2.66-1.34,2.65-2.84-.05-1.54-1.33-2.74-2.87-2.7-.02,0-.04,0-.07,0Z"/><path class="cls-6" d="m27.3,34.99c.51.34,1.08.57,1.69.68.14,0,1.28-1.11,1.26-1.34s-1.23,0-1.54,0-1.49.45-1.41.66Z"/><path class="cls-6" d="m31.55,35.63c-.14.35-.29.7-.46,1.03-.08.16-.18.31-.3.44-.04.05-.1.1-.16.12-.06,0-.13-.01-.19-.04-.14-.08-.27-.19-.37-.32-.12-.13-.23-.28-.33-.43-.2-.3-.39-.62-.54-.96l-.29-.6-.07.67c-.05.44-.14.88-.27,1.31-.06.21-.14.41-.24.61-.09.18-.22.33-.38.44h-.27c-.1,0-.21-.02-.31-.06-.21-.07-.41-.16-.6-.28-.38-.25-.74-.54-1.07-.86.28.38.6.72.96,1.01.19.15.4.27.62.37.23.11.5.12.75.04.24-.12.43-.31.55-.54.12-.21.22-.43.29-.66.15-.45.25-.91.31-1.38l-.37.06c.17.35.37.68.6.99.11.16.24.31.38.46.14.15.32.28.51.36.11.05.24.06.37.04.11-.05.21-.12.28-.22.11-.16.2-.34.28-.52.14-.34.25-.69.33-1.05Z"/><path class="cls-6" d="m37.24,32.97c.93-.25,1.87-.49,2.82-.69s1.89-.4,2.84-.54l1.43-.22c.48-.06.96-.13,1.44-.18.96-.12,1.92-.19,2.89-.27h-1.46c-.49,0-.97.05-1.45.1-.97.07-1.93.21-2.89.37s-1.91.35-2.85.59c-.47.11-.94.24-1.4.37s-.93.31-1.38.48Z"/><path class="cls-6" d="m37.73,33.45l1.3-.18,1.3-.16c.87-.1,1.73-.19,2.6-.26l1.31-.1,1.3-.07h2.62c-.87-.06-1.75-.09-2.62-.07s-1.75.06-2.62.13-1.74.17-2.61.31-1.72.21-2.58.42Z"/><path class="cls-6" d="m37.59,34.03h4.36c.72,0,1.46.04,2.18.07l2.18.11c-.36-.06-.75-.1-1.08-.15s-.75-.08-1.09-.11c-.75-.07-1.45-.1-2.18-.12s-1.46,0-2.19,0-1.46.1-2.18.19Z"/><path class="cls-6" d="m15.85,39.37c-.6.06-1.19.15-1.78.25s-1.19.21-1.78.33c-1.18.25-2.34.54-3.5.87s-2.3.71-3.43,1.13c-.57.21-1.12.43-1.68.66-.28.11-.55.24-.82.37l-.82.37c1.12-.44,2.24-.88,3.37-1.26.57-.2,1.13-.39,1.7-.57s1.15-.36,1.72-.52c1.15-.34,2.31-.63,3.48-.91s2.34-.52,3.53-.72Z"/><path class="cls-6" d="m15.56,40.17c-1.06.23-2.1.53-3.14.84s-2.06.68-3.08,1.06-2.02.8-2.99,1.25-1.95.94-2.9,1.49c.49-.22.98-.47,1.49-.68l.75-.34.75-.32c.5-.22,1-.42,1.49-.62s1.01-.4,1.49-.59c1.01-.39,2.03-.75,3.05-1.1.51-.17,1.02-.34,1.54-.5s1.02-.31,1.54-.51Z"/><path class="cls-6" d="m16.03,40.76c-.86.28-1.69.63-2.52.99s-1.65.75-2.46,1.15-1.6.84-2.38,1.3c-.4.22-.75.46-1.16.69l-1.13.75c.79-.43,1.57-.88,2.37-1.31s1.59-.85,2.4-1.25,1.61-.8,2.43-1.19c.4-.19.81-.39,1.22-.57s.82-.38,1.24-.56Z"/><path class="cls-6" d="m33.83,26.45c-.31-.52-.85-.85-1.46-.9-.59-.09-1.2.09-1.64.49.3.09.56.12.81.17.75.1,1.49.21,2.28.24h0Z"/><path class="cls-6" d="m15.34,31.29c.66-.4,1.29-.84,1.9-1.31.22-.17.43-.35.63-.54-.59-.15-1.2-.01-1.68.36-.5.34-.81.89-.84,1.49Z"/><path class="cls-6" d="m28.62,45.28c.75-.4,1.42-.95,1.95-1.62.04-.05.16,0,.18.06l.16.78s.87-.96.99-3.37h.04c.47,1.43.02,3-1.14,3.96-.11.06-.27-.75-.28-.87-.45.59-1.1.98-1.82,1.12-.04.01-.1-.03-.06-.05Z"/><g id="Meow_speech_bubble"><path class="cls-1" d="m88.74,13.29c.01,7.28-10.37,13.18-23.19,13.19-5,0-9.87-.91-13.88-2.61l-11.38,1.65,4.74-6.02c-1.8-1.9-2.73-4.03-2.73-6.19,0-7.28,10.39-13.19,23.21-13.19,12.83,0,23.23,5.9,23.23,13.18h0s-.03-.01-.03-.01Z"/><path class="cls-6" d="m88.74,13.29c-.12,11.14-22.51,17.02-36.98,10.76l-11.36,1.69-.8.12.34-.43,4.68-6.02v.22c-5.34-5.4-2.73-12.69,5.7-16.56,15.26-7.14,38.34-1,38.39,10.23h.04Zm0,0c.07-8.43-14.46-14.87-28.8-12.64-12.27,1.79-19.66,8.89-16.51,15.86.45,1,1.12,1.97,1.97,2.88l.1.11-.08.11-4.78,6-.46-.31,11.4-1.61c15.53,6.37,36.75.6,37.14-10.41h.03Z"/><text class="cls-2" transform="translate(47.81 16.5)"><tspan x="0" y="0">meow...</tspan></text></g></g></g></svg>