<?xml version="1.0" encoding="UTF-8"?><svg id="Layer_2" xmlns="http://www.w3.org/2000/svg" viewBox="0 0 97.86 105.1"><defs><style>.cls-1{fill:#fff;}.cls-2{fill:#ff9bbc;}.cls-3{fill:#ffc727;}.cls-4{font-family:IndieFlower, 'Indie Flower';font-size:10.29px;}.cls-5{fill:none;}.cls-6{isolation:isolate;opacity:.1;}.cls-7{fill:#263238;}</style></defs><g id="Layer_1-2"><g id="Meow_speech_bubble"><path class="cls-1" d="m93.77,15.43c0,6.24-8.89,11.3-19.88,11.31-4.29,0-8.46-.78-11.9-2.23l-9.75,1.42,4.07-5.16c-1.54-1.63-2.34-3.46-2.34-5.31,0-6.24,8.91-11.31,19.9-11.31,11,0,19.92,5.06,19.92,11.3h0s-.02-.01-.02-.01Z"/><path class="cls-7" d="m93.77,15.43c-.1,9.55-19.3,14.6-31.71,9.23l-9.74,1.45-.69.1.29-.37,4.01-5.16v.19c-4.58-4.63-2.34-10.88,4.88-14.2,13.09-6.13,32.87-.86,32.91,8.77h.03Zm0,0c.06-7.23-12.39-12.75-24.7-10.84-10.52,1.53-16.86,7.62-14.16,13.6.39.86.96,1.69,1.69,2.47l.09.09-.07.1-4.1,5.15-.4-.27,9.78-1.38c13.31,5.46,31.51.51,31.84-8.92h.02Z"/><text class="cls-4" transform="translate(58.68 18.18)"><tspan x="0" y="0">meow...</tspan></text></g><path class="cls-3" d="m15.23,28.06c0,.54,1.86,3.14,5.08,4.68,0,0-4.67,8.84-4.73,12.29-.09,5.63,4.56,14.02,9.79,16.63,3.49,1.75,37.96,2.11,39.59,2.11s15.34-6.79,15.07-8.73c-.39-2.78-5.29-19.07-13.57-22.29-2.16-.85-6.19-.71-12.29,1.44,0,0-4.57-2.25-8.67-2.56,0,0,6.03-7.88,4.84-13.46-.22-1.06-10.82-9.16-12.68-9.88s-14.93,1.98-17.12,5.42c-1.35,2.12-5.29,12.98-5.31,14.35Z"/><path class="cls-3" d="m15.23,28.06c0,.54,1.86,3.14,5.08,4.68,0,0-4.67,8.84-4.73,12.29-.09,5.63,4.56,14.02,9.79,16.63,3.49,1.75,37.96,2.11,39.59,2.11s15.34-6.79,15.07-8.73c-.39-2.78-5.29-19.07-13.57-22.29-2.16-.85-6.19-.71-12.29,1.44,0,0-4.57-2.25-8.67-2.56,0,0,6.03-7.88,4.84-13.46-.22-1.06-10.82-9.16-12.68-9.88s-14.93,1.98-17.12,5.42c-1.35,2.12-5.29,12.98-5.31,14.35Z"/><path class="cls-7" d="m29.74,19.84c-1.56.06-2.31,1.29-2.26,2.69.07,1.29,1.18,2.29,2.48,2.21.01,0,.02,0,.04,0,1.33-.08,2.36-1.19,2.35-2.51-.04-1.36-1.18-2.43-2.54-2.39-.02,0-.04,0-.06,0Z"/><path class="cls-7" d="m25.77,17.93c.58-.36,1.14-.75,1.68-1.16.19-.15.38-.31.56-.48-.52-.13-1.07-.01-1.49.32-.44.3-.72.79-.75,1.32Z"/><path class="cls-3" d="m44.41,13.78c-.4-3.14-1.98-11.91-2.59-12.67s-6.85,2.37-9.49,8.32l12.07,4.35Z"/><path class="cls-2" d="m43.71,13.53c-.3-2.57-1.5-9.69-1.93-10.29s-5.18,2.14-7.13,7.02l9.06,3.27Z"/><path class="cls-3" d="m39.76,13.09c-.2-1.91.42-4.11,2.09-5.21.55-.37,1.18-.59,1.83-.66-.15.06-.3.12-.45.17-.15.05-.3.11-.44.19-2.07.97-2.84,3.35-3.04,5.48v.03Z"/><path class="cls-3" d="m38.81,13.03c-.71-3.16.31-6.85,3.05-8.74.39-.26.79-.49,1.2-.7-3.31,2.08-4.56,5.66-4.25,9.44Z"/><path class="cls-3" d="m24.06,11.9c-1.53-1.32-8.43-5.11-9.49-4.84s-.74,8.45-.56,10.16c.18,1.71,2.48,7.01,2.48,7.01l7.57-12.33Z"/><path class="cls-2" d="m23.86,12.23c-1.21-1.05-6.45-4.23-7.28-4.02s-.59,6.69-.44,8.04c.15,1.35,1.9,5.48,1.9,5.48l5.82-9.5Z"/><path class="cls-3" d="m21.49,16.81c-1.73-1.25-4.04-2.24-6.13-1.32-.15.05-.29.12-.43.2-.14.08-.28.16-.42.23.48-.45,1.05-.78,1.68-.97,1.93-.53,3.97.45,5.29,1.85h0Z"/><path class="cls-7" d="m54.17,34.18c-1.98.97-3.97,2.08-5.95,2.95,1.79-1.34,3.81-2.34,5.95-2.95Z"/><path class="cls-6" d="m20.31,34.04c-.23.89,2.08,1.92,4.72,1.65,3.44-.34,5.05-2.04,4.93-2.53-.19-.85-1.32.13-5.17.46-1.11.1-4.31-.24-4.47.42Z"/><path class="cls-6" d="m18.05,38.25c-.3,1.14,2.81,2.5,6.34,2.19,4.63-.41,6.75-2.59,6.62-3.24-.27-1.11-2.07.44-6.88.75-2.49.16-5.86-.56-6.08.3Z"/><path class="cls-6" d="m16.91,44.03c-.22,1.24,3.59,2.48,7.73,1.9,5.39-.76,7.67-3.24,7.42-3.92-.44-1.16-2.39.62-8.03,1.28-2.89.34-6.95-.19-7.12.73Z"/><path class="cls-6" d="m73.13,42.1c-.1-.84-2.45-.97-4.63.14-2.88,1.44-3.71,3.45-3.45,3.85.46.66,1.13-.57,4.35-2.13.92-.46,3.8-1.23,3.73-1.86Z"/><path class="cls-6" d="m70.66,37.69c-.12-1.09-3.27-1.24-6.25.21-3.87,1.9-5.01,4.51-4.63,5.02.6.87,1.65-1.08,5.73-2.96,2.08-.96,5.25-1.46,5.15-2.28Z"/><path class="cls-6" d="m66.94,33.69c-.22-1.15-3.97-.95-7.36.93-4.44,2.45-5.6,5.37-5.14,5.88.77.86,1.88-1.32,6.55-3.8,2.41-1.26,6.15-2.14,5.95-3.02Z"/><path class="cls-6" d="m39.96,62.47c.37,1.2,3.61.83,6.31-1.32,3.51-2.79,4.08-5.92,3.6-6.43-.81-.87-1.44,1.5-5.16,4.3-1.91,1.45-5.03,2.56-4.75,3.45Z"/><path class="cls-6" d="m17.91,50.41c-.07,1.48,4.53,2.34,9.26,1.06,6.15-1.68,8.42-4.89,8.02-5.64-.66-1.28-2.69,1.08-9.12,2.68-3.32.83-8.1.81-8.16,1.91Z"/><path class="cls-6" d="m29.56,61.34c.22,1.37,4.46,1.32,8.4-.71,5.13-2.68,6.54-6.07,6.03-6.69-.85-1.07-2.18,1.48-7.57,4.15-2.77,1.36-6.99,2.23-6.86,3.25Z"/><path class="cls-6" d="m20.71,56.03c-.08,1.64,5.07,2.65,10.35,1.18,6.87-1.88,8.85-5.72,8.4-6.55-.77-1.44-2.87.87-9.63,3.24-3.6,1.26-9.06.91-9.12,2.14Z"/><path class="cls-3" d="m80.04,55.03c1.48.66,6.45-1.17,10.01-1.42s6.44,3.31,6.08,5.19c-.59,3.12-7.28,9.26-15.42,11.2s-24.1,3.78-31.76,1.98c-7.65-1.79-8.9-6.77-8.18-9.92.91-4,6.66-6.15,14.55-5.48,5.22.44,14.32,2.03,19.66,2.33l5.05-3.87Z"/><path class="cls-7" d="m40.63,63.15c.17-4.68,5.01-6.29,8.94-6.8,8.16-.96,16.08,1.67,24.15,2.3,4.01.36,8.06.75,12.08.25-3.97.77-8.1.54-12.13.27s-8.06-.92-12.04-1.59c-5.8-.83-12.29-1.78-17.74.86-1.82.91-3.05,2.69-3.26,4.72h0Z"/><path class="cls-1" d="m37.54,20.18c-2.97.44-3.8,3.58-4.06,3.9s-3.72,5.52-2.18,8.05c1.21.15,2.43.21,3.65.19,1.66-.07,7.91-.81,10.23-.75,0,0,1.16-6.72-2.51-8.84-.01,0-1.82-3.06-5.13-2.56Z"/><path class="cls-7" d="m45.5,31.62c-3.36.16-6.62.75-9.98,1.07-2.03.11-4.07-.1-6.03-.62,1.68.06,3.31.15,4.99.07,3.65-.34,7.35-1.08,11.02-.52h0Z"/><path class="cls-7" d="m41.5,16.71c1.03-.34,1.9.51,2.3,1.71.33.98.05,2.18-.93,2.51s-1.98-.66-2.31-1.54-.18-2.32.94-2.68Z"/><path class="cls-7" d="m36.38,21.2c.45.3.96.51,1.5.6.13,0,1.13-.99,1.12-1.18s-1.09,0-1.36,0-1.32.4-1.25.58Z"/><path class="cls-7" d="m40.14,21.78c-.13.31-.26.62-.41.91-.07.14-.16.27-.26.39-.04.05-.09.08-.15.11-.06,0-.11-.01-.17-.04-.13-.07-.24-.17-.33-.28-.11-.12-.21-.25-.29-.38-.18-.27-.34-.55-.48-.85l-.26-.54-.07.6c-.05.39-.13.78-.24,1.16-.06.19-.13.37-.21.54-.08.16-.19.29-.34.39h-.24c-.09,0-.18-.02-.27-.05-.19-.06-.37-.14-.53-.25-.34-.22-.66-.48-.95-.76.24.33.53.63.85.89.17.13.35.24.55.32.21.1.44.11.66.04.21-.11.38-.28.49-.48.11-.19.19-.38.26-.59.13-.4.22-.81.28-1.22l-.33.05c.15.31.33.6.53.88.1.14.21.28.34.4.13.14.28.24.45.32.1.04.22.06.32.03.1-.04.19-.11.25-.2.1-.14.18-.3.24-.46.12-.3.22-.61.29-.93Z"/><path class="cls-7" d="m45.18,19.42c.83-.22,1.66-.43,2.5-.61s1.67-.35,2.52-.48l1.27-.2c.42-.05.85-.11,1.28-.16.85-.11,1.7-.17,2.56-.24h-1.29c-.43,0-.86.05-1.28.09-.86.07-1.71.19-2.56.32s-1.69.31-2.53.52c-.42.1-.83.21-1.24.33s-.82.27-1.22.42Z"/><path class="cls-7" d="m45.62,19.84l1.15-.16,1.15-.15c.77-.09,1.53-.17,2.3-.23l1.16-.09,1.15-.06h2.32c-.77-.05-1.55-.08-2.32-.07s-1.55.05-2.32.11-1.54.15-2.31.27-1.53.19-2.28.37Z"/><path class="cls-7" d="m45.5,20.36h3.86c.64,0,1.29.04,1.93.07l1.93.1c-.32-.05-.66-.09-.96-.13s-.66-.07-.97-.1c-.66-.06-1.28-.09-1.93-.11s-1.29,0-1.94,0-1.29.09-1.93.17Z"/><path class="cls-7" d="m26.23,25.09c-.53.05-1.06.13-1.58.22s-1.05.19-1.57.29c-1.05.22-2.08.48-3.1.77s-2.04.63-3.04,1.01c-.5.19-.99.38-1.49.59-.24.1-.49.21-.73.32l-.73.33c.99-.39,1.98-.78,2.99-1.12.5-.18,1.01-.34,1.51-.51s1.02-.32,1.53-.46c1.02-.3,2.05-.56,3.08-.81s2.08-.46,3.13-.64Z"/><path class="cls-7" d="m25.97,25.8c-.94.21-1.87.47-2.78.75s-1.83.6-2.73.94-1.79.71-2.65,1.11-1.73.83-2.57,1.32c.44-.2.87-.42,1.32-.6l.66-.3.66-.28c.44-.19.89-.37,1.32-.55s.89-.36,1.32-.52c.89-.34,1.8-.66,2.71-.97.45-.15.91-.3,1.36-.44s.91-.28,1.36-.45Z"/><path class="cls-7" d="m26.38,26.32c-.76.25-1.5.56-2.24.87s-1.46.66-2.18,1.02-1.42.74-2.11,1.15c-.35.2-.66.41-1.03.62l-1.01.66c.7-.38,1.4-.78,2.1-1.16s1.41-.75,2.12-1.11,1.43-.71,2.15-1.05c.36-.17.72-.34,1.08-.5s.73-.34,1.1-.5Z"/><path class="cls-7" d="m42.16,13.64c-.28-.46-.76-.76-1.29-.8-.53-.08-1.06.08-1.46.44.26.08.5.11.72.15.66.09,1.32.19,2.02.21h0Z"/><path class="cls-7" d="m37.54,30.33c.67-.36,1.25-.84,1.73-1.44.03-.05.15,0,.16.05l.14.69s.77-.85.87-2.99h.03c.42,1.27.02,2.66-1.01,3.51-.1.05-.24-.66-.25-.77-.4.52-.97.87-1.61.99-.03.01-.09-.03-.05-.05Z"/><rect class="cls-5" width="97.86" height="105.1"/></g></svg>