<?xml version="1.0" encoding="UTF-8"?><svg id="Layer_2" xmlns="http://www.w3.org/2000/svg" viewBox="0 0 158.25 221.95"><defs><style>.cls-1{fill:#ce5b29;}.cls-2{fill:#e5a681;}.cls-3{fill:#fff;}.cls-4{fill:#bfbfbf;}.cls-5{fill:#af725a;}.cls-6{fill:#5b1439;}.cls-7{fill:#122323;}.cls-8{fill:none;stroke:#0b1919;stroke-linecap:round;stroke-miterlimit:10;stroke-width:.5px;}.cls-9{fill:#2f5a5e;}.cls-10{fill:#e76f2e;}.cls-11{fill:#2b141c;}.cls-12{fill:#aaa;}.cls-13{font-family:KalamVariable-Regular, 'Kalam Variable';font-size:15px;font-variation-settings:'wght' 400;}.cls-14{fill:#14110f;}.cls-15{fill:#d39272;}.cls-16{fill:#264749;}.cls-17{fill:#263238;}</style></defs><g id="Layer_1-2"><g id="me_hover"><path class="cls-3" d="m145.9,20.94c0,11.47-11.14,20.77-24.89,20.78-5.35,0-10.57-1.44-14.86-4.1l-12.2,2.6,5.08-9.48c-6.49-10.12-1.91-22.71,10.22-28.12s27.22-1.59,33.71,8.52c1.93,3.01,2.94,6.37,2.94,9.79Z"/><path class="cls-17" d="m145.9,20.94c-.41,17.34-23.18,26.44-39.84,16.4l-12.22,2.53.5.5,5.12-9.46.1-.18-.11-.17c-6.39-10-1.85-22.43,10.14-27.76,1.73-.77,3.55-1.36,5.45-1.77,15.27-3.5,30.86,6.63,30.86,19.91Zm0,0c-.1-17.69-24.84-27.37-41.22-16.1-9.05,6.1-11.84,17.59-6.1,26.1v-.35s-5.04,9.49-5.04,9.49l-.36.68.86-.2,12.18-2.66c15.52,9.84,39.54.6,39.66-16.96h.02Z"/><g id="Me_Hi"><path class="cls-5" d="m74.12,41.92c.4,3.02.73,5.94,1.22,8.85.2,1.18-.01,1.68-1.25,1.56-.44-.04-1.46-.51-1.93-.51-.87-3.79-.27-6.82,1.97-9.9Z"/><path class="cls-11" d="m71.81,38.11c-4.12-1.48-10.2,0-8.54-1.16,2.24-2.17,6.26-1.81,8.54,1.16Z"/><path class="cls-11" d="m81.83,48.91c2.12-11.12-.05-5.74-6.89-11.7,1.84,1.6,5.68.06,7.58.96-.66-4.03-2.21-3.65-4.55-5.96-.26.2.28.08.02.27.48.94.4,1.64.9,2.66-.91-.24-1.8-.53-2.66-.87-4.25,8.43-11.51,25.07-5.56,30.32,0,0,.53.87,2.94.72,2.41-.15-3.09,3.62-6.26,2.72-3.17-.9-4.38-1.66-4.38-1.66l-2.34-7.54,15.26-24.68c-5.22-2.11-9.54-5.92-13.1-10.62-1.41,9.56-4.98,7.87-8.63,13.91-.63,1.86-1.63,5.42-2.69,7.11-.62-1.44-1.4-4.72-1.68-6-.36-1.64-.91-2.22-2.47-2.44-4.12-.82-3.8,3.2-3.6,5.97,1.47,7.21,7.37,1.1,4.45,10.1l1.35,1.86-2.34,7.54s-1.21.75-4.38,1.66c-3.17.91-8.67-2.87-6.26-2.72,2.41.15,2.94-.72,2.94-.72,3.81-3.37,4.16-7.75,3.45-11.43-1.5-3.45-2.72-7.04-4.04-10.53-3.43-11.2,1.4-26.76,14.67-27.54,7.62-8.14,21.37-4.55,28.74,2.37,4.56,3.67,6.08,9.6,7.91,14.91,2.19,7.8-2.46,16.6-8.41,21.33Z"/><path class="cls-15" d="m78.26,56.78c-3.35,5.76-9.31,8.92-13.98,6.95-.43,1.44-.32,3.09-1.71,3.85-6.19,2.45-12.5-.1-18.16-2.81.82-2.96,1.87-6.02,2.51-9.12,5.45-13.04-1.74-5.33-3.62-12.97-.21-2.78-.09-7.4,4.03-6.58,1.57.23,2.12.8,2.47,2.45.28,1.28.63,2.54,1.25,3.98,2.78-11.66,10.03-8.05,11.74-19.01,4.22,5.58,9.27,9.45,15.86,11.17-4.28-7.37,4.79,1.03,4.98,5.22-1.9-.9-4.11-2.84-6.03-1.33,1.18,1.33,3.1,1.41,4.7,1.95,3.23,2.22-2.78,12.98-4.04,16.25h0Zm-25.84-.93c.21,2.8,3.47,9.44,6.34,7.55.94-.7.78-1.2-.08-1.93-2.12-1.79-4.13-3.7-6.26-5.63Zm17.27-18.7c-1.37-1.71-4.55-1.76-6.41-.21,2.06-.23,4.08,1,6.41.21Zm4.05,5.9c-.92,2.53,2.02,9.24-2.62,7.74,5.98,1.94,2.77-4.95,2.62-7.74Z"/><path class="cls-5" d="m52.42,55.86c2.13,1.93,4.14,3.84,6.26,5.63.86.73,1.02,1.23.08,1.93-.33.25-1.33.56-1.65.86-2.93-2.19-4.36-4.76-4.69-8.42Z"/><path class="cls-5" d="m46.07,42.51s-.36,2.23,1.96,1.81l-1.96-1.81Z"/><ellipse class="cls-14" cx="66.17" cy="42.3" rx="2.27" ry="1.38" transform="translate(20.84 106.43) rotate(-87.34)"/><ellipse class="cls-14" cx="78.98" cy="44.08" rx="1.84" ry="1.12" transform="translate(27.38 118.36) rotate(-84.38)"/><path class="cls-6" d="m70.86,57.82c1.39.46,2.91.18,3.97-2.21.31-.7.42-1.5.24-1.79-.18-.3-.58.04-.88.73-.6,1.35-3.11,1.6-5.18-.41-.22-.21-.63-.67-.92.06s-.35,1.48-.13,1.69c.65.63,1.73,1.54,2.9,1.92Z"/><path class="cls-12" d="m122.84,128.73c-.02,2.18-1.62,3.76-3.8,3.73-1.88-.02-3.41-1.55-3.39-3.39.02-2.15,1.91-4.06,3.98-4.02,1.81.03,3.22,1.65,3.2,3.68Z"/><path class="cls-9" d="m25.11,71.26l4.16-.31,5.55,2.7,14.15,10.06,14.2,3.59,9.34-10.1s3.09-4.64,4.54-3.55-2.02,14.66-2.02,14.66l4.75,19.25-6.91,11.51,4.89,21.43-39.85-4.55-13.58-36.38.78-28.3Z"/><path class="cls-10" d="m74.14,134.95c-.15-.3-.21-.77-.45-.88-2.17-.98-1.88-2.91-1.85-4.71.04-2.59.32-5.19.21-7.78-.11-2.63.67-4.76,2.35-6.76,2.86-3.38,4.18-7.39,3.79-11.79-.22-2.51-.87-5-1.48-7.46-.69-2.74-1.54-5.44-2.34-8.15-.19-.65-.18-.99.43-1.57.55-.52.52-1.71.62-2.62.3-2.7.5-5.4.82-8.1.06-.47.49-.9.82-1.49,2.34,2.47,3.44,5.31,3.94,8.32.68,4.09,1.14,8.22,1.57,12.35.44,4.22.76,8.45,1.05,12.68.23,3.34.31,6.69.51,10.03.1,1.69.33,3.37.52,5.06.02.19.09.47.23.55.95.54,1.91,1.04,2.88,1.55-.35,1.45-.67,2.91-1.07,4.35-.39,1.44-.87,2.85-1.3,4.28-.31,1.04-.63,2.09-.94,3.13-.06.31-.13.61-.19.92-.1.29-.2.58-.3.87-.05.23-.1.46-.15.68-.09.23-.19.45-.28.68-.31.79-.03,3.06-.34,3.84-.74-.73-2.46-2.32-3.09-3.13-1.64-2.11-3.78-3.54-5.95-4.86Z"/><path class="cls-7" d="m28.57,66.57c.79-.61,4.59-3.36,8.5-2.45.23.05.46.08.7.06.9-.08,3.33-.26,4.12.06l1.72.31c.21.04.41.11.6.2,1.99.99,13.93,6.67,19.11,1.88.36-.33.79-.58,1.27-.63.92-.11,2.48-.07,3.87.97,2.13,1.61,4.1,4.16,5.79,4.04.32-.02.61.04.88.17,1.34.62,1.55,2.47.49,3.51l-6.85,6.77s-10.12,10.86-27.54-3.52c-15.84-13.08-19.69-4.43-20.25-2.75-.06.17-.13.33-.22.48-.74,1.17-4.2,7.28-5.81,21.4-1.81,15.87-3.57,31.19-1.1,36.72,2.48,5.53,8.75,7.47,8.75,7.47,0,0,1.8.36-.28,3.92s-5.95,24.93-3.79,30.48c2.17,5.55,3.19,6.09,11.77,7.41,8.58,1.32,11.57,1,11.57,1,0,0,1.89-.57,3.91,3.24,1.99,3.77,5.38,10.89,5.55,27.35,0,.37.1.73.28,1.06.46.87,1.26,2.87.19,4.9-1.22,2.31-5.83.98-7.15.55-.22-.07-.43-.18-.61-.32-1.5-1.12-9.16-6.57-13.92-4.58-1.67.7-3.01,1.34-4.07,1.9-1.47.77-3.22-.29-3.23-1.94-.03-5.46-.22-15.19-1.25-19.65-1.4-6.08-2.93-10.34-7.44-12.07-.78-.3-1.38-.96-1.47-1.79-.08-.71-.01-1.75.39-3.23,1.12-4.13,1.05-32.45-.47-34.67-1-1.47-6.53-1.27-10.17-.96-1.55.13-2.74-1.34-2.3-2.83,2.39-8.07,8.44-29.2,8.17-35.38-.28-6.41.97-8.9,1.39-9.55.11-.17.19-.35.25-.55.58-1.87,3.25-10.54,4.23-15.47.17-.88.61-1.67,1.23-2.32.73-.76,1.7-1.89,2.32-3.11,1.09-2.13,6.62-5.88,10.55-7.86.12-.06.23-.13.34-.21Z"/><path class="cls-15" d="m152.82,181.11c-.84,3.73-3.71,7.1-7.69,7.37-9.3.12-18.66.88-27.91-.49-2.15-1.03,2.31-5.31.77-9.46-.87-3.88,4.71.63,13.12-2.65,3.93-1.02,7.96-1.64,11.95-2.42,2.22,1.01,4.83.5,7.2.98,3.93.37,3.18,3.82,2.56,6.69Z"/><path class="cls-7" d="m113.39,154.11l21.09-8.3c1.3-.51,2.74-.48,4.01.09l13.92,6.23c1.36.61,2.39,1.77,2.83,3.19l2.77,8.85c.67,2.15-.12,4.5-1.97,5.79-4.83,3.36-15.39,9.08-31.45,9.3-13.47.18-19.77.79-22.67,1.26-1.61.26-3.25-.26-4.42-1.4l-7.11-6.91c-2.63-2.55-1.85-6.95,1.49-8.45l21.52-9.65Z"/><path class="cls-7" d="m22.96,150.14l-3.94,18.79,4.42,10.1,6.62,3.9,9.31,1.2,11.93-.19.97-5.59,19.18,7.02,16.36,1.22,37.47,5.27s6.87-15.33-5.19-17.97c-12.06-2.64-56.77-21.98-56.77-21.98l-10.24-3.15-29.64-2.18-.48,3.57Z"/><path class="cls-15" d="m74.14,134.95c2.16,1.32,5.52,2.9,7.15,5.01.63.81.55,1.59,1.29,2.32-.46,1.9-.92,2.98-1.42,5.06-2.99,0-6.02,0-9.05,0,.05-1.03-.31-1.81-1.32-2.21-1.35-.53-3.77.78-4.12,2.22-4.64.01-4.72.09-9.36.1-.04-.2-.15-.46-.2-.65,1.5,0-1.5,0,0,0-1.1-1.47-2.64-1.39-4.04-1.53-3.32-.34-6.67-.48-9.99-.83-2.7-.28-5.38-.74-8.27-1.15.46-1.44.72-2.6,1.18-3.67.81-1.89,1.61-3.82,2.68-5.57.63-1.03,1.76-1.76,2.67-2.63.34,0,.68-.01,1.02-.02,1.33.67,2.61,1.48,4,2,3.06,1.14,6.24,1.98,9.24,3.24,3.54,1.49,6.92,1.27,10.49.11,2.6-.85,5.36-1.22,8.05-1.81Zm7.61,10.67c.18-.18.24.02.41-.16-.29-1.72-4.29-6.09-5.84-6.16-.16.16-.33.33-.49.49,1.7,1.68,4.22,4.15,5.92,5.83Z"/><path class="cls-15" d="m51.3,184.17c.87.06.77-.47.74-1.09-.06-1.47-.32-4.68,2.05-3.63,1.9.84,3.71,1.89,5.64,2.61,2.45.92,5.02,1.52,7.48,2.41,3.71,1.33,7.58,1.65,11.43,2.08.11.01.21.13.32.2-5.09,1.87-10.46,2.78-15.73,4-2.52.56-5.05,1.08-7.59,1.58-3.71.25-4.43-5.31-4.35-8.15Z"/><path class="cls-16" d="m126.74,151.66c-.8.76-1.6,1.53-2.41,2.29-.08.08,0,.22.11.19,2.43-.65,4.83-1.55,7.32-1.83,1.53-.18,3.09-.12,4.72.36-.28.08-.56.2-.85.24-2.01.28-4.1.3-6.02.86-3.07.89-6.13,1.91-9.01,3.27-6.01,2.85-11.9,5.96-17.83,8.96-.85.43-1.71.84-2.56,1.26,0,.29,0-.29,0,0,4.38,1.92,23.99,7.04,25.19,9.44.03.05.08.09.06.14-.05.12-.09.24-.14.35-.02.05-.08.08-.14.07-1.49-.46-9.35-4.47-16.17-6.36-7.55-2.24-14-4.63-21.25-7.95-5.85-2.68-11.72-5.29-17.6-7.9-2.27-1.01-4.58-1.94-6.86-2.92-.2-.09-.38-.25-.55-.42-.07-.07-.03-.19.07-.19,2.33-.06,4.67-.15,7-.16,18.52-.01,37.05,0,55.57,0,.42,0,.85.06,1.27.11.09.01.13.13.07.19Z"/><path class="cls-16" d="m66.65,147.34c.35-1.44,2.77-2.75,4.12-2.22,1.01.39,1.37,1.18,1.32,2.21-1.81,0-3.63,0-5.44.01Z"/><path class="cls-16" d="m124.57,192.06c-8.72-1.47-21.46-3.62-30.12-4.31-13.82-.78-27.92-1.58-40.38-8.32-3.62-1.4-.76,4.45-2.79,4.72-7.92.59-31.35,1.4-34.1-8.71-1.8-10.97,2.25-21.84,5-32.34.1-.34.16-.61.13-.84l.18.09c6.29,2.39,11.35,2.46,14.38,2.13-.08-.02-.16-.04-.24-.06-.71-.18-1.39-.58-2.01-.99-.24-.15-.43-.68-.35-.95.94-3.22,1.92-6.47,4.07-9.11.72-.88,1.97-1.32,2.98-1.97-.91.87-2.04,1.59-2.67,2.63-1.07,1.75-1.86,3.68-2.68,5.57-.46,1.07-.73,2.23-1.18,3.67,1.65.23,3.23.48,4.79.7,1.17.17,2.32.32,3.48.44,3.32.34,6.67.48,9.99.82,1.4.14,4.52-.1,5.62,1.37-.81,1.37-3.15,1.14-4.67,1.11.02.25-.03.51-.15.81-9.58-.17-21.17,3.84-26.11,12.48-3.56-24.3-12.17,16.21,1.21,20.52,5.7,2.48,22.58,5.12,22.86-3.62-1.35-1.5-5.04-2.76-4.89-4.79,7.83,6.87,17.87,10.32,28.03,11.99,14.84,1.41,32.58,3.05,47.39,5.52,1.31-.06,5.7.97,2.21,1.42Z"/><path class="cls-16" d="m83.29,147.44c-2.49-2.48-4.99-4.95-7.48-7.43.24-.24.48-.48.72-.73,2.27.1,7.12,4.82,7.55,7.36-.26.27-.53.53-.79.8Z"/><path class="cls-10" d="m43.69,132.07l-5.51,12.51s-.23.15-.76.3c-1.59.45-5.9.94-14.91-2.5l-.18-.09-2.6-1.34c-1.39-.47-2.56-1.09-3.55-1.83-7.26-5.43-4.53-17.43-3.77-26.13,1.64-12.69,1.48-25.85,7.49-37.13.47-2.24,4.06-5.27,5.75-6.46.93-.19,3.24.75,4.12,1.94,11.38,8.91,5.2,32.48,5.6,45.83-.51,2.79-.2,5.27.75,7.45,2.43,5.12,7.57,7.46,7.57,7.46Z"/><path class="cls-4" d="m151.53,110.42c-.95,2.94-1.92,5.87-2.85,8.82-.39,1.24-.67,2.51-1.05,3.75-.9,2.93-1.85,5.84-2.74,8.78-1.15,3.77-2.26,7.55-3.37,11.33-.43,1.48-.82,2.97-1.23,4.46-.19.6-.41,1.19-.57,1.79-.5,1.82-.76,2.02-2.59,2.04-3.4.03-6.8.08-10.19.12-.5-.05-1.01-.13-1.51-.13-18.52,0-37.05-.01-55.57,0-2.43,0-4.86.11-7.28.16-2.27-.66-4.54-1.33-6.82-1.99-.2-.07-.41-.13-.61-.2-.42-.06-.84-.12-1.26-.18-.27-.06-.53-.12-.8-.18-.29-.07-.58-.14-.87-.21.18-.46.36-.92.54-1.38,4.64-.01,9.28-.02,13.92-.04,1.81,0,3.63,0,5.44-.01h9.05c.5-2.08.96-3.98,1.42-5.88.31-.79.62-1.58.93-2.36.09-.23.19-.45.28-.68.05-.23.1-.46.15-.68.1-.29.2-.58.3-.87.06-.31.13-.61.19-.92l.94-3.13c.44-1.43.91-2.84,1.3-4.28.4-1.44.72-2.9,1.07-4.35.5-1.65.99-3.29,1.49-4.94.94-3.11,1.83-6.24,2.85-9.33.46-1.38.41-3.1,2.11-3.81,1.1.02,2.2.06,3.3.06,4.54-.03,9.07-.07,13.61-.1.11.05.22.11.32.16.11.02.22.04.33.06.4.1.8.29,1.2.3,3.45,0,6.89,0,10.34-.05.43,0,.85-.24,1.28-.36,4.5-.02,9.01-.03,13.51-.06,3.56-.02,7.13-.07,10.69-.1.13,0,.26.02.4.02.34.17.68.47,1.03.49,1.95.13,2.24.52,1.66,2.39-.05.15-.04.32-.06.48-.1.34-.2.68-.3,1.03Zm-28.69,18.31c.02-2.03-1.4-3.65-3.2-3.68-2.07-.03-3.96,1.87-3.98,4.02-.02,1.84,1.51,3.37,3.39,3.39,2.17.03,3.78-1.55,3.8-3.73Z"/><path class="cls-2" d="m30.42,71.4c3.66,1.15,6.05,2.7,9.12,4.9,3.86,2.77,7.47,5.91,11.95,7.75,3.18,1.31,6.47,1.22,9.65.82,2.87-.36,5.48-1.95,7.87-3.7.62,3.56-1.15,6.32-4.2,7.75-1.46.68-3.06,1.16-3.15,3.25-.02.37-.59.85-1.01,1.02-.23.09-.9-.28-.99-.56-.8-2.62-3.15-2.86-5.21-3.48-2.58-.78-5.1-1.75-7.14-3.55-1.23-1.08-2.07-2.59-3.16-3.84-.93-1.06-1.92-2.09-2.98-3.01-1.77-1.54-3.5-3.16-5.46-4.41-1.83-1.16-3.3-2.04-5.29-2.94h0Z"/><path class="cls-1" d="m22.25,123.33s7.86-1.99,12.53-.24"/><path class="cls-1" d="m22.84,126.17s4.11-3.95,8.23-3.24"/><path class="cls-1" d="m72.73,123.33s7.86-1.99,12.53-.24"/><path class="cls-1" d="m73.32,126.17s4.11-3.95,8.23-3.24"/><path class="cls-8" d="m25.71,68.57c5.2-.06,16.18.42,21.26,5.15,5.89,5.48,22.73,1.83,27.1-2.44"/></g><text class="cls-13" transform="translate(111.67 25.38)"><tspan x="0" y="0">Hi!</tspan></text></g></g></svg>