<?xml version="1.0" encoding="UTF-8"?><svg id="Layer_2" xmlns="http://www.w3.org/2000/svg" viewBox="0 0 519.17 385.49"><defs><style>.cls-1{fill:#e9e9e9;}.cls-2{fill:#c65726;}.cls-3{fill:#e5a681;}.cls-4,.cls-5,.cls-6{fill:#fff;}.cls-7{fill:#37474f;}.cls-8{fill:#455a64;}.cls-9{fill:#a6a6a6;}.cls-10{fill:#313f44;}.cls-11{fill:#758e4f;}.cls-12{fill:#c7c7c7;}.cls-5,.cls-13,.cls-14,.cls-15,.cls-16,.cls-6,.cls-17{isolation:isolate;}.cls-5,.cls-17{opacity:.5;}.cls-18{fill:#cb9e1d;}.cls-13{opacity:.3;}.cls-19{fill:#e76f2e;}.cls-14,.cls-20{opacity:.2;}.cls-21{fill:#ebebeb;}.cls-22{fill:#ffc727;}.cls-15{opacity:.1;}.cls-16{opacity:.4;}.cls-6{opacity:.9;}.cls-23{fill:#7f7e7e;}.cls-24{fill:#6a7f45;}.cls-25{fill:#263238;}</style></defs><g id="Layer_1-2"><g id="book_stack_table"><polygon class="cls-2" points="484.97 178.06 462.59 178.19 462.62 168.58 484.95 168.57 484.97 178.06"/><rect class="cls-22" x="446.43" y="178.33" width="56.35" height="14.19"/><rect class="cls-25" x="452.85" y="178.34" width="6.19" height="14.19"/><rect class="cls-25" x="463.83" y="178.34" width="2.3" height="14.19"/><rect class="cls-25" x="489.19" y="178.34" width="6.19" height="14.19"/><rect class="cls-8" x="450.4" y="209.37" width="65.73" height="9.92"/><rect class="cls-7" x="456.57" y="211.4" width="25.28" height="5.95"/><polygon class="cls-19" points="484.97 178.06 462.59 178.19 465.24 171.3 487.6 170.74 484.97 178.06"/><rect class="cls-22" x="455.72" y="192.53" width="49.93" height="16.84"/><rect class="cls-8" x="495.7" y="192.52" width="4.65" height="16.84"/><rect class="cls-8" x="490.84" y="192.53" width="1.8" height="16.84"/><rect class="cls-9" x="450.41" y="219.29" width="65.74" height="11.63"/><rect class="cls-21" x="504.93" y="219.29" width="5.24" height="11.63"/><rect class="cls-21" x="462" y="219.29" width="5.24" height="11.63"/><rect class="cls-21" x="470.84" y="219.29" width="2.03" height="11.63"/></g><path class="cls-22" d="m337.44,227.12c1.12-3,3.12-18.56,3.66-27.87s-4.61-21.08-9.14-27.13-6.88-7.14-8.27-12.86-5.11-13.15-11.72-20.5-10.34-10-14.22-9.42-3.86,9.63-4.44,11.43-6.6,6.47-5.42,13.46,3.19,9.59,3.18,11.94-2.74,5.79-.73,11.55,12.2,10.88,14.48,14,6,11.6,10.25,16,11.49,7.95,14.56,11.21,7.81,8.19,7.81,8.19Z"/><path class="cls-10" d="m337.44,227.12c1.12-3,3.12-18.56,3.66-27.87s-4.61-21.08-9.14-27.13-6.88-7.14-8.27-12.86-5.11-13.15-11.72-20.5-10.34-10-14.22-9.42-3.86,9.63-4.44,11.43-6.6,6.47-5.42,13.46,3.19,9.59,3.18,11.94-2.74,5.79-.73,11.55,12.2,10.88,14.48,14,6,11.6,10.25,16,11.49,7.95,14.56,11.21,7.81,8.19,7.81,8.19Z"/><g class="cls-20"><path class="cls-11" d="m336.84,223.16c-5.07-14.83-10.6-29.52-18.12-43.29-4.8-10.82-7.74-22.22-11.46-33.4-.99-3.28-2.25-6.47-3.77-9.53l-.77-1.25c2.32,3.18,3.59,7,5,10.62,4,11,7.08,22.47,11.9,33.14,7.46,13.82,12.9,28.63,17.21,43.71h0Z"/><path class="cls-11" d="m333.91,182.69c2.77,10,2.65,20.58-.36,30.51.15-1.27.33-2.54.46-3.82,1.24-8.86,1.2-17.84-.1-26.69Z"/><path class="cls-11" d="m308.33,189.75c4.53,4.44,8.55,9.48,13.32,13.63,2.1,1.39,4.34,2.57,6.68,3.52,1.16.53,2.35,1,3.53,1.5-3.79-.82-7.43-2.26-10.76-4.25-5-4.12-8.9-9.28-12.77-14.4Z"/><path class="cls-11" d="m321.16,163.18c2,7.36,3,15.32,1.31,22.85.26-7.67-.61-15.21-1.31-22.85h0Z"/><path class="cls-11" d="m293.62,151.92c5.62,6.19,11.51,12.27,18.62,16.62,1,.68,2.09,1.15,3.14,1.75-9.2-3.1-16.51-10.43-21.8-18.37h.04Z"/><path class="cls-11" d="m297.71,146.85c4.34,5.08,8.52,10.53,14.46,13.82-6.58-2-11.29-8-14.46-13.82h0Z"/></g><path class="cls-11" d="m356.43,288.23h2.81s-4-14.87-8.67-28.82c-5.65-16.76-12.22-29.15-12.43-35.2l-2.68.85s9.44,21.73,12.74,33.72,8.23,29.45,8.23,29.45Z"/><path class="cls-11" d="m356.43,288.23h2.81s-4-14.87-8.67-28.82c-5.65-16.76-12.22-29.15-12.43-35.2l-2.68.85s9.44,21.73,12.74,33.72,8.23,29.45,8.23,29.45Z"/><path class="cls-22" d="m371.17,228.64c-.55-7.75-1.52-15.46-2.91-23.1-.91-4.68,1-20.53,3.11-27.94s11.3-29.47,16-33.2,27-16.82,36.81-16.86,8.08,8.86,5.69,15.06-10.18,15.83-12.82,21.28-9.17,29.59-12.54,36.44-8.57,17.88-13.11,21.09-16.95,4.42-20.23,7.23Z"/><path class="cls-10" d="m371.17,228.64c-.55-7.75-1.52-15.46-2.91-23.1-.91-4.68,1-20.53,3.11-27.94s11.3-29.47,16-33.2,27-16.82,36.81-16.86,8.08,8.86,5.69,15.06-10.18,15.83-12.82,21.28-9.17,29.59-12.54,36.44-8.57,17.88-13.11,21.09-16.95,4.42-20.23,7.23Z"/><g class="cls-20"><path class="cls-11" d="m425.58,130.64c-3.98,2.55-7.73,5.44-11.21,8.64-5.28,4.68-10.57,9.48-15,15-3.9,5.84-6.79,12.41-9.85,18.74-2.1,4.22-3.94,8.56-5.52,13-2.39,7.91-5.87,19.12-8.37,27.11l-4,13.61,3.61-13.72c2.36-8.1,5.58-19.3,8-27.25,1.54-4.48,3.34-8.87,5.41-13.13,3.15-6.4,6.05-12.92,10.07-18.84,4.49-5.56,9.92-10.23,15.33-14.85,3.68-3,7.34-6,11.53-8.27v-.04Z"/><path class="cls-11" d="m422.48,147.22c-4.53,4.76-9.72,9.55-16.36,11-1.9.54-5.71,1.67-7.59,2.23-1.28.35-2.54.74-3.82,1.08,4.84-2.08,9.8-3.89,14.85-5.4,4.73-2.16,8.85-5.65,12.92-8.87v-.04Z"/><path class="cls-11" d="m390.74,146.38c-1,4-2,10.08-2.87,14.13-.24,1.22-.84,4.09-1,5.28-.16,1.75,0,3.52.51,5.21.26,1.16.62,2.31,1,3.46-1.17-2.15-1.96-4.48-2.34-6.89-.27-2.44.5-4.87.88-7.26.87-4.75,2.16-9.41,3.85-13.93h-.03Z"/><path class="cls-11" d="m403.71,181.49c-3.34,4.19-7.2,7.96-11.47,11.2-2.83,1.66-6.26,3.34-9.21,4.83-1.14.53-2.26,1.09-3.41,1.6,1-.71,2.12-1.35,3.18-2,2.79-1.72,6.08-3.59,8.9-5.22,3.83-2.73,8.47-7.24,12.06-10.38l-.05-.03Z"/><path class="cls-11" d="m406.86,190.33c-4.18,4.92-8.78,10.27-14.91,12.76-3.21,1.05-7.17,2.21-10.44,3.16-1.4.37-2.8.77-4.21,1.12,1.34-.56,2.71-1.06,4.06-1.59,3.2-1.17,7.06-2.56,10.27-3.61,6-2.54,10.48-7.56,15.23-11.84h0Z"/></g><path class="cls-11" d="m372.72,226.99c-1.07,1.77-3.75,13.34-5.25,25.88-2,16.77-2.73,35.36-2.73,35.36h-4s2.57-26,4.32-37.29,6.25-24.94,6.25-24.94l1.41.99Z"/><path class="cls-11" d="m372.72,226.99c-1.07,1.77-3.75,13.34-5.25,25.88-2,16.77-2.73,35.36-2.73,35.36h-4s2.57-26,4.32-37.29,6.25-24.94,6.25-24.94l1.41.99Z"/><path class="cls-11" d="m377.78,258.54c-5.15,10.31-6.75,29.69-6.75,29.69h-3.56s3.64-17.83,5.16-22.79c1.7-5.58,2.31-8.39,2.31-8.39l2.84,1.49Z"/><path class="cls-11" d="m375.71,259.43c-1.22-3.95-2.67-7.83-4.34-11.61-1.24-2.77-3.55-10.34-3-14.36s10.06-12.5,11.94-14.08,8.28-3.26,10.16-8,1.18-10.06,4.63-13.51,15.39-6,19.14-7.89,8.48-5.33,13.41-5.53,14.8-.89,19.63,1.28,12.73,8,12,10.95-3.94,3.16-5.81,5.82-10.16,16.28-19.14,27.23-19,17.14-23.28,18.08-8.48.85-11.74,2.53-4.24,4-9.07,5.72-9.57,1.78-11.54,2.17c-1.06.2-2.08.61-2.99,1.2Z"/><path class="cls-22" d="m375.72,259.41c.93-.58,1.97-.97,3.05-1.17,2-.39,6.71-.39,11.54-2.17s5.82-4,9.08-5.71,7.49-1.59,11.73-2.53,14.3-7.15,23.28-18.09c7.6-9.28,14.71-20.47,17.84-25.29-3.47,5-17.57,21.72-21.29,24.2s-20,7.8-24.36,9.47-9.68,9.76-13.42,13-15.36,5.73-17.45,8.29Z"/><path class="cls-10" d="m375.72,259.41c.93-.58,1.97-.97,3.05-1.17,2-.39,6.71-.39,11.54-2.17s5.82-4,9.08-5.71,7.49-1.59,11.73-2.53,14.3-7.15,23.28-18.09c7.6-9.28,14.71-20.47,17.84-25.29-3.47,5-17.57,21.72-21.29,24.2s-20,7.8-24.36,9.47-9.68,9.76-13.42,13-15.36,5.73-17.45,8.29Z"/><g class="cls-20"><path d="m456.69,194.57c-4.51.72-8.94,1.85-13.24,3.38-8.68,2.82-17.16,6.19-25.41,10.1-4.13,1.88-8.01,4.25-11.57,7.06-8.58,7.48-16.14,16.07-22.48,25.53-3.21,6-5.63,12.48-8.27,18.76,2.37-6.44,4.59-12.95,7.73-19.08,6.2-9.68,13.73-18.43,22.38-26,7.25-5.74,16-9.1,24.47-12.45,8.58-3.05,17.29-6.34,26.39-7.32v.02Z"/><path d="m430.55,222.54c-2.95,1.88-6.45,2.71-9.77,3.74-9.7,2.91-20.89,3.9-30.88,5.65,10.07-2.88,20.53-3.83,30.69-6.39,3.35-.86,6.83-1.5,10-3h-.04Z"/><path d="m413.86,196.2c-4.33,3.83-7.67,8.66-11.11,13.26-2.71,3.42-4.3,7.43-5.67,11.53l-1.46,4.11c1.23-5.68,2.63-11.56,6.31-16.22,3.49-4.61,7.09-9.41,11.93-12.68Z"/><path d="m382.02,227.23c-1.61,7.38-1.4,15-2.47,22.45-.27-3.78-.25-7.57.07-11.35.4-3.75.71-7.67,2.4-11.1Z"/><path d="m423.55,190.58c-2.74,3.43-11.2,13.55-13.69,16.89-1.81,2.74-3.37,5.66-5.12,8.44,1.62-3.62,3.15-7.38,5.55-10.57,4.01-5.27,8.44-10.21,13.26-14.76Z"/><path d="m439.43,204.45c-3.72,2.15-7.93,3.25-12.08,4.27-4.26.84-8.54.69-12.84.59,1.06-.17,2.12-.27,3.18-.41l6.35-.66c5.23-.81,10.38-2.08,15.39-3.79h0Z"/></g><path class="cls-11" d="m347.42,270.47c-1.16-3.57-1.46-7.35-.89-11.06.59-5.06,3.28-10.39.31-14.68s-9.34-7.1-10.52-9.91-4.73-10.36-11.69-15.54-15.39-8.73-19.82-12.13-9.92-9.62-12.88-7.4,2.67,22.11,5.33,24.44,7,19.5,11.39,22.31,8.44,3.11,9.47,4.3,3.4,5.17,7.1,6.51c5.57,2.18,10.97,4.81,16.13,7.84,2.31,1.41,4.36,3.21,6.07,5.32Z"/><g class="cls-20"><path d="m347.42,270.47c-5.86-9.13-12.05-18.05-18.68-26.63-11.28-14.13-24-27.12-34.14-42.17,8.84,11.48,18.45,22.27,28,33.15,9.34,11.1,17.65,23.03,24.8,35.65h.02Z"/><path d="m338.24,255.95c-9.34-3.21-18.24-7.58-26.49-13,8.59,4,18,8.74,26.49,13Z"/><path d="m331.14,227.23c2.64,7.16,3.53,14.84,2.58,22.41-.42-7.53-1.28-15.02-2.58-22.45v.04Z"/><path d="m321.82,218.26c2.61,6.3,4.16,13.35,3.18,20.17-.42-6.84-1.89-13.44-3.18-20.17Z"/><path d="m295.48,216.82c6.28,3.48,13.17,7.08,19.65,10.17-7.21-1.94-13.91-5.41-19.65-10.17Z"/></g><path class="cls-11" d="m346.61,267.07c4,8.34,7.76,21.16,7.76,21.16h-2s-3.57-15-7.07-20l1.31-1.16Z"/><path class="cls-11" d="m355.12,236.3c.88-5.71,3.45-11.02,7.4-15.24,4.44-4.74,12.13-12.14,14.5-26.64s-2.57-28.09-3.55-31.51-3.26-8.14-4.89-8.43-5.17,1.62-8.13,1.92-8.88.3-14.06,7.4-12,11.83-15.83,22.34-3,28.85,4,34.47,13.62,7.25,16.58,10.06c1.7,1.58,3.06,3.5,3.98,5.63Z"/><g class="cls-20"><path d="m366.66,156.25c-4.55,4.93-6.72,11.51-9.07,17.67-2.14,6.27-4.32,12.66-5.29,19.22-.83,6.61-1.25,13.27-1.27,19.94-.18,3.32.05,6.65.69,9.91.73,3.26,1.67,6.47,2.81,9.61-1.32-3.08-2.42-6.26-3.29-9.5-1.54-6.57-.94-13.39-.79-20.07.15-10.13,2.77-20,6.42-29.38,2.52-6.11,4.9-12.74,9.79-17.4h0Z"/><path d="m374.6,178.74c-2.65,3.94-6.38,7-10.16,9.87-3.78,2.93-8.17,4.98-12.84,6,1.09-.47,2.18-.92,3.24-1.42,3.22-1.38,6.25-3.18,9-5.35,3.85-2.69,7.45-5.72,10.75-9.06v-.04Z"/><path d="m347.57,164.69c.47,3,1,7.39,1.62,10.35.67,3.42,2.55,6.39,4.63,9.16-6-4.67-6.68-12.46-6.25-19.51Z"/><path d="m332.78,188.21c1.93,4.74,4.52,11.45,6.61,16,1.68,3.96,4.41,7.38,7.9,9.9,1.09.93,2.25,1.81,3.41,2.68-3.77-2.18-7.55-4.67-10.16-8.27-3.66-6.31-5.82-13.35-7.76-20.34v.03Z"/><path d="m370.06,201.64c-4,7-10.35,18.54-18.46,20.87,1.08-.46,2.09-1.07,3-1.82,4.62-3.62,7.76-8.71,11.28-13.35,1-1.43,3.13-4.29,4.19-5.7h-.01Z"/><path d="m339.29,194.42c2.13,3.69,3.88,7.52,6,11.19,1.2,2.28,3.24,3.67,5.37,5-1.64-.54-3.17-1.38-4.51-2.47-1.22-1.27-2.23-2.73-3-4.31-1.59-3.02-2.89-6.19-3.88-9.45l.02.04Z"/></g><path class="cls-11" d="m361.78,288.23h2.76s-10.16-41-8.72-55.18l-1.75,1.23s0,23.77,7.71,53.95Z"/><polygon class="cls-7" points="341.69 337.37 384.52 337.37 389.29 288.23 336.91 288.23 341.69 337.37"/><polygon class="cls-6" points="389.3 288.22 388.05 301.11 338.17 301.11 336.92 288.22 389.3 288.22"/><polygon class="cls-22" points="388.05 301.11 386.8 313.99 339.42 313.99 338.17 301.11 388.05 301.11"/><polygon class="cls-15" points="341.69 337.37 372.72 325.57 384.27 288.23 389.29 288.23 384.52 337.37 341.69 337.37"/><rect class="cls-22" x="325.57" y="337.37" width="74.88" height="10.91"/><rect class="cls-16" x="325.57" y="337.37" width="74.88" height="10.91"/><polygon class="cls-22" points="331.79 384.9 326.2 384.9 335.96 348.27 349.35 348.27 331.79 384.9"/><polygon class="cls-16" points="331.79 384.9 326.2 384.9 335.96 348.27 349.35 348.27 331.79 384.9"/><polygon class="cls-15" points="335.96 348.27 334.6 353.35 347.73 351.64 349.35 348.27 335.96 348.27"/><polygon class="cls-22" points="394.23 384.9 399.82 384.9 390.06 348.27 376.66 348.27 394.23 384.9"/><polygon class="cls-16" points="394.23 384.9 399.82 384.9 390.06 348.27 376.66 348.27 394.23 384.9"/><polygon class="cls-15" points="390.06 348.27 391.41 353.35 378.28 351.64 376.66 348.27 390.06 348.27"/><polygon class="cls-22" points="366.49 384.9 359.52 384.9 356.82 348.27 369.19 348.27 366.49 384.9"/><polygon class="cls-16" points="366.49 384.9 359.52 384.9 356.82 348.27 369.19 348.27 366.49 384.9"/><polygon class="cls-15" points="357.06 351.52 356.82 348.27 369.19 348.27 368.95 351.52 357.06 351.52"/><rect class="cls-21" x="390.41" y="250.7" width="36.01" height="11.19"/><path class="cls-21" d="m250.06,82.19c6-.1,21.32-.35,27.09-.42h8.92l-.45.46-.05-11.19.5.5c-6,0-21.23-.07-27-.16l-9-.11.24-.23-.24,11.19v-.04Zm0,0l-.23-11.19v-.23h.23c4.5-.06,13.52-.17,18-.2l18-.07h.51v12.15h-.46c-10.08,0-25.81-.3-36-.46h-.05Z"/><path class="cls-21" d="m270.15,96.3c6-.1,21.32-.35,27.09-.42h8.92l-.46.46v-11.19l.5.5c-6,0-21.23-.07-27-.16l-9-.11.24-.23-.24,11.19-.05-.04Zm0,0l-.23-11.19v-.23h.24c4.49-.06,13.52-.17,18-.2l18-.07h.5v12.15h-.46c-10.08,0-25.82-.3-36-.46h-.05Z"/><rect class="cls-21" x="290.16" y="71" width="36.01" height="11.19"/><rect class="cls-21" x="40.57" y="323.91" width="36.01" height="11.19"/><path class="cls-21" d="m350.8,297.35c6-.1,21.31-.35,27.08-.42h8.93l-.46.46v-11.19l.5.5c-6,0-21.23-.08-27-.16l-9-.11.23-.23-.23,11.19-.05-.04Zm0,0l-.24-11.19v-.23h.24c4.49-.06,13.51-.16,18-.19l18-.07h.5v.5l-.05,11.19v.46h-.45c-10.08,0-25.82-.29-36-.45v-.02Z"/><rect class="cls-4" x="131.99" y="89.54" width="7.02" height="105.9"/><rect class="cls-4" x="59.2" y="89.54" width="65.57" height="105.9"/><rect class="cls-8" x="366.08" y="230.93" width="153.09" height="8.22"/><rect class="cls-8" x="378.08" y="239.15" width="129.08" height="15.83"/><polygon class="cls-25" points="507.16 242.28 378.08 243.81 378.08 239.15 507.16 239.15 507.16 242.28"/><path class="cls-7" d="m490.53,252.17h-95.82v-10.2h95.82v10.2Zm-94.82-1h93.82v-8.2h-93.82v8.2Z"/><rect class="cls-7" x="430.03" y="245.74" width="25.18" height="2.66"/><polygon class="cls-8" points="377.19 385.44 373.53 385.44 384.19 254.99 393.53 254.99 377.19 385.44"/><polygon class="cls-25" points="393.53 254.99 392.44 263.72 383.48 263.72 384.19 254.99 393.53 254.99"/><polygon class="cls-8" points="508.06 385.44 511.72 385.44 501.06 254.99 491.71 254.99 508.06 385.44"/><polygon class="cls-25" points="491.71 254.99 492.81 263.72 501.77 263.72 501.06 254.99 491.71 254.99"/><path class="cls-22" d="m126.82,183.42h0s-.02.02,0,0Z"/><path class="cls-11" d="m130.05,176.57c-5.21,8.62-18.82,40-21,49.1s-6.34,57-6.8,58.45c-.74,2.05-1.7,4-2.86,5.84h9.27c-.71-1.62-1.14-3.36-1.27-5.13.05-3.33,4.38-53.14,5.4-58.61s14.86-41.57,19.91-47.55l-2.65-2.1Z"/><path class="cls-11" d="m130.05,176.57c-5.21,8.62-18.82,40-21,49.1s-6.34,57-6.8,58.45c-.74,2.05-1.7,4-2.86,5.84h9.27c-.71-1.62-1.14-3.36-1.27-5.13.05-3.33,4.38-53.14,5.4-58.61s14.86-41.57,19.91-47.55l-2.65-2.1Z"/><path class="cls-22" d="m126.8,183.45c2.48-3,7.17-17.56,7.17-23.74s-.24-20.27,2-25.47,13.11-11.86,18.55-12.11,9,1.36,14.34,1.11,14.09-11.37,19.65-12.3,19.1,6.3,25,7.23,15.2-1.85,15.2-1.85c-2.94,2.75-5.67,5.73-8.16,8.9-3.33,4.45-6.12,9.83-9.45,11.87s-18.92,10.57-26.89,15.94-17.62,15.58-23,16.14-10.57.37-19.1,4.08c-5.6,2.59-10.76,6.03-15.31,10.2Z"/><path class="cls-11" d="m126.8,183.45c2.48-3,7.17-17.56,7.17-23.74s-.24-20.27,2-25.47,13.11-11.86,18.55-12.11,9,1.36,14.34,1.11,14.09-11.37,19.65-12.3,19.1,6.3,25,7.23,15.2-1.85,15.2-1.85c-2.94,2.75-5.67,5.73-8.16,8.9-3.33,4.45-6.12,9.83-9.45,11.87s-18.92,10.57-26.89,15.94-17.62,15.58-23,16.14-10.57.37-19.1,4.08c-5.6,2.59-10.76,6.03-15.31,10.2Z"/><path class="cls-15" d="m228.72,116.33c-2.94,2.75-5.66,5.72-8.14,8.89-3.35,4.45-6.12,9.82-9.46,11.86s-18.91,10.58-26.89,16-17.62,15.58-23,16.14-10.57.37-19.1,4.08c-5.59,2.59-10.75,6.02-15.3,10.17h0l.71-1.07h0c3.44-5.13,17.72-26.14,26.81-34.46,10.4-9.53,31-18.67,36.11-20.16s37.47-11.05,38.21-11.36l.05-.09Z"/><path class="cls-22" d="m134.05,172.9c4.25-6.45,8.84-12.66,13.75-18.62,2.71-3.44,5.81-6.55,9.24-9.28,9.14-6.29,18.67-12.25,29.07-16.22,3.66-1.35,7.41-2.25,11.11-3.33l11.16-3-11,3.51c-14.53,3.75-27.5,11.42-39.79,19.83-3.47,2.53-6.31,5.81-9.19,9-5,5.82-9.73,12-14.33,18.13l-.02-.02Z"/><path class="cls-22" d="m143.1,135.04c-.39,3.6.15,8.87.21,12.53.12,3,.2,6.38.23,9.43v3.15c-.19-1-.3-2.08-.45-3.12-.34-3-.63-6.38-.73-9.42,0-4.18-.36-8.5.78-12.57h-.04Z"/><path class="cls-22" d="m179.85,150.67c-5.26,2.34-10.55,4.6-16.29,5.54-4.29.38-8.59.54-12.89.48-1.43,0-2.86-.05-4.29-.13,1.43-.14,2.85-.23,4.28-.36,4.12-.32,8.71-.55,12.78-1,5.51-.85,11.05-3,16.41-4.54h0Z"/><path class="cls-22" d="m163.55,128.08c-2.53,5.25-4.3,10.84-5.24,16.6-.41-6,1.46-11.93,5.24-16.6Z"/><path class="cls-22" d="m200.12,138.83c-5.45.8-10.94,1.31-16.43,1.75-5.53.63-11.12.04-16.4-1.72,4.03.77,8.14,1.1,12.24,1,6.85-.52,13.71-1,20.59-1.07v.04Z"/><path class="cls-11" d="m114.78,166.02c2.09,5.79,8.53,38.6,9.39,46.91s6.55,67.47,6.36,70-4.91,7.06-4.91,7.06h10.94s-.88-4.41-1.62-8.49-6.35-60.27-7.65-70.7-8.32-46.09-8.32-46.09l-4.19,1.31Z"/><path class="cls-11" d="m114.78,166.02c2.09,5.79,8.53,38.6,9.39,46.91s6.55,67.47,6.36,70-4.91,7.06-4.91,7.06h10.94s-.88-4.41-1.62-8.49-6.35-60.27-7.65-70.7-8.32-46.09-8.32-46.09l-4.19,1.31Z"/><path class="cls-22" d="m118.48,170.84c-3.21-5.69-12.85-13.6-20.52-17.06s-10.38-2.72-17.06-7.17-15.08-23.49-24.51-29.38-15.82-10.63-21.51-16.32-12.36-20-18.79-25.22c0,0,53.65,3.71,65.52,10.88s28.88,30.66,32.67,39.76c7.42,17.8,4.2,44.51,4.2,44.51Z"/><path class="cls-24" d="m118.48,170.84c-3.21-5.69-12.85-13.6-20.52-17.06s-10.38-2.72-17.06-7.17-15.08-23.49-24.51-29.38-15.82-10.63-21.51-16.32-12.36-20-18.79-25.22c0,0,53.65,3.71,65.52,10.88s28.88,30.66,32.67,39.76c7.42,17.8,4.2,44.51,4.2,44.51Z"/><path class="cls-15" d="m118.47,170.81c-3.22-5.68-12.85-13.57-20.51-17s-10.39-2.72-17.06-7.17-15.08-23.52-24.51-29.41-15.82-10.64-21.51-16.33-12.36-20-18.79-25.22c0,0,46.44,17.66,59.34,28.81,13.23,11.66,24.5,25.37,33.38,40.61,3.67,6.5,9.44,25,9.66,25.71Z"/><path class="cls-22" d="m31.97,82.01c13.86,5.6,28,11.14,40.45,19.52,8,6.1,14.68,13.62,21.23,21.19s12.7,15.64,16.5,24.95c2.07,4.55,3.84,9.23,5.32,14-2.51-7.03-5.54-13.87-9.08-20.44-6.57-10.56-14.9-20-23.49-28.91-3.4-3.61-7.08-6.95-11-10-12.36-8.36-26.35-14.14-39.92-20.25v-.06Z"/><path class="cls-22" d="m78.32,137.23c9.1,3.6,18.64,6.16,27.86,9.46,1.32.49,2.64.95,4,1.47-1.38-.3-2.73-.67-4.09-1-9.43-2.6-19.12-5.17-27.72-9.93h-.05Z"/><path class="cls-22" d="m106.71,116.75c.93,4.36,1.64,8.76,2.12,13.19.34,4.47,0,8.96-1,13.33.09-3.91.52-9.41,0-13.24s-1-9.39-1.13-13.28h.01Z"/><path class="cls-22" d="m100.85,109.23c.9,4.18,1.59,8.41,2.06,12.66.43,4.22,1,8.69-.4,12.79.66-3.67-.18-9-.59-12.68-.47-4.25-.9-8.49-1.07-12.77h0Z"/><path class="cls-22" d="m58.63,111.81c5.66,2.31,11.5,4.16,17.32,6,5.93,1.51,11.78,3.32,17.53,5.42-1.49-.34-3-.74-4.46-1.09-4.31-1.18-9.1-2.14-13.36-3.39-5.89-1.74-11.58-4.06-17-6.94h-.03Z"/><path class="cls-22" d="m79.39,89.56c5.28,8.95,9.63,18.73,10.35,29.21l-1-3.78c-1.88-8.68-6.07-17.21-9.4-25.43h.05Z"/><path class="cls-22" d="m41.88,96.34c9.4,1.42,19,4.2,28.61,4.38-9.75,1.18-19.37-1.61-28.61-4.38Z"/><path class="cls-11" d="m97.55,232.86c.25,1,7.09,4.64,9.69,8.82s13.44,41.89,14.74,44c1.12,1.61,2.47,3.04,4,4.26h-8.9s.68-10.66-1.18-15.39-10.23-30.67-11.71-32.43-5.41-4.77-8-5.12l1.36-4.14Z"/><path class="cls-11" d="m97.55,232.86c.25,1,7.09,4.64,9.69,8.82s13.44,41.89,14.74,44c1.12,1.61,2.47,3.04,4,4.26h-8.9s.68-10.66-1.18-15.39-10.23-30.67-11.71-32.43-5.41-4.77-8-5.12l1.36-4.14Z"/><path class="cls-22" d="m98.39,235.83c-.74-1.85-4.08-19.32-7.6-22.5s-22.81-9.48-27.82-9.67-21.44,3-28.93,8.16c-2.41,1.67-14.28,4.82-20.58,9.09S-1.01,231.11.1,231.48s16.14,1.67,19.48,1.29,12.79-6.11,15.2-6.3c2.41-.19,17.62,6.3,22.63,8.9s8.82,9.13,12.79,10.57c6.07,2.23,28.19-10.11,28.19-10.11Z"/><path class="cls-11" d="m98.39,235.83c-.74-1.85-4.08-19.32-7.6-22.5s-22.81-9.48-27.82-9.67-21.44,3-28.93,8.16c-2.41,1.67-14.28,4.82-20.58,9.09S-1.01,231.11.1,231.48s16.14,1.67,19.48,1.29,12.79-6.11,15.2-6.3c2.41-.19,17.62,6.3,22.63,8.9s8.82,9.13,12.79,10.57c6.07,2.23,28.19-10.11,28.19-10.11Z"/><path class="cls-15" d="m98.33,235.83h0c-.61.34-22.14,12.29-28.17,10.1-4-1.44-7.79-8-12.79-10.56s-20.21-9.09-22.63-8.91-11.87,5.94-15.2,6.31-18.36-.93-19.48-1.31c0,0,24.12-10.56,32.65-13,8.53-2.44,22.44-4.27,27.81-3.9s23.18,7.87,26.34,10.34,11.47,10.93,11.47,10.93Z"/><path class="cls-22" d="m86.07,224.41c-5.3.38-10.62.48-15.93.5-3.91.09-7.82,1.14-11.65,1.92l-3.9.82c5.06-1.75,10.12-3.5,15.56-3.74,5.31,0,10.62.11,15.92.5h0Z"/><path class="cls-22" d="m78.83,220.81c-5.12-3.89-9.43-8.89-11.54-15,1.85,2.56,3.36,5.39,5.38,7.78s4.19,4.76,6.16,7.26v-.04Z"/><path class="cls-22" d="m56.23,214.64c-5,2.12-11.27,4.21-16.3,6.26-2.14.94-7.18,3.65-9.33,4.74,7.41-5.91,16.53-8.83,25.63-11Z"/><path class="cls-22" d="m42.39,216.36c-3.26,1.68-6.66,3.1-9.93,4.73s-5.91,4.2-8.93,6.26c1.85-2.07,3.89-3.96,6.08-5.67,3.82-2.65,8.36-4,12.78-5.32Z"/><path class="cls-22" d="m48.73,215.38c-1.84-.58-3.51-1.61-4.86-3-.64-.97-1.15-2.02-1.5-3.12.8.77,1.54,1.59,2.2,2.48,1.35,1.23,2.88,2.21,4.16,3.62v.02Z"/><path class="cls-22" d="m8.87,227.69c8.75-3.76,17.44-8.16,26.78-10.3,8-1.68,16-3.56,24.21-3.33,5.28.58,10.25,2.84,15.11,4.8,3.52,1.53,7,3.08,10.42,4.86,3.15,2.2,6.02,4.8,8.52,7.72-2.73-2.62-5.49-5.39-8.75-7.29-3.41-1.66-6.95-3.15-10.48-4.58-5.29-1.93-10.58-4.53-16.29-4.6-9.5.54-18.91,2.1-28.08,4.65-7.23,2.4-14.32,5.32-21.44,8.07h0Z"/><path class="cls-22" d="m98.33,235.83s-22.06,12.34-28.18,10.11c-4-1.44-7.79-8-12.79-10.56s-20.21-9.09-22.63-8.91-11.87,5.94-15.2,6.31-18.36-.93-19.48-1.31c0,0,13.49-.61,16.09-1.09s10.81-5.52,12.79-6.5,8-.68,9.51-.75,13.73-.37,16.88,0,16.88,11.32,19.66,12.7,17.8.28,23.35,0Z"/><path class="cls-11" d="m98.33,235.83s-22.06,12.34-28.18,10.11c-4-1.44-7.79-8-12.79-10.56s-20.21-9.09-22.63-8.91-11.87,5.94-15.2,6.31-18.36-.93-19.48-1.31c0,0,13.49-.61,16.09-1.09s10.81-5.52,12.79-6.5,8-.68,9.51-.75,13.73-.37,16.88,0,16.88,11.32,19.66,12.7,17.8.28,23.35,0Z"/><path class="cls-22" d="m132.67,241.68c1.85-5.75,2.6-27.82,4.45-35.79s19.84-22.26,28.19-26.34,35.23-4.82,41.54-5.19,10.57-2.6,11.68-2.41-29.8,19.66-43,29.11-31.37,24.48-35.27,28.93c-2.91,3.63-5.46,7.55-7.59,11.69Z"/><path class="cls-11" d="m132.67,241.68c1.85-5.75,2.6-27.82,4.45-35.79s19.84-22.26,28.19-26.34,35.23-4.82,41.54-5.19,10.57-2.6,11.68-2.41-29.8,19.66-43,29.11-31.37,24.48-35.27,28.93c-2.91,3.63-5.46,7.55-7.59,11.69Z"/><path class="cls-11" d="m134.1,232.86c-.29,2.51-8.57,18.74-10.7,24.3s-4.82,28.91-5.29,29.93c-.78,1.09-1.72,2.06-2.78,2.87h7.42s.47-2.54,1.08-5.73,1.36-18.07,1.92-20.63c1.12-5.1,9.2-25.75,12.28-30.74h-3.93Z"/><path class="cls-11" d="m134.1,232.86c-.29,2.51-8.57,18.74-10.7,24.3s-4.82,28.91-5.29,29.93c-.78,1.09-1.72,2.06-2.78,2.87h7.42s.47-2.54,1.08-5.73,1.36-18.07,1.92-20.63c1.12-5.1,9.2-25.75,12.28-30.74h-3.93Z"/><path class="cls-22" d="m117.61,194.88c2.56-.45,7.81-5.39,14.7-8.12s20.55-5.75,24-2.7-5.77,25-15.37,30.23-22.94,14.56-26.72,17.84-4.52,5.16-6.45,4.5c-2.34-.79-.56-12.72-6.15-17.29s-16.08-13.36-18.29-17.92-2.63-14.81-.89-18.27,8.4-9.05,13.46-8.91,20.29,20.89,21.71,20.64Z"/><path class="cls-11" d="m117.61,194.88c2.56-.45,7.81-5.39,14.7-8.12s20.55-5.75,24-2.7-5.77,25-15.37,30.23-22.94,14.56-26.72,17.84-4.52,5.16-6.45,4.5c-2.34-.79-.56-12.72-6.15-17.29s-16.08-13.36-18.29-17.92-2.63-14.81-.89-18.27,8.4-9.05,13.46-8.91,20.29,20.89,21.71,20.64Z"/><path class="cls-15" d="m140.9,214.29c-9.6,5.26-22.94,14.56-26.72,17.84-3.08,2.67-4.14,4.41-5.47,4.62h0l-1-.11s3.65-12,5.56-18.09,4-19.77,4.32-23.67c2.56-.45,7.81-5.39,14.7-8.12s20.54-5.75,24-2.7-5.79,24.97-15.39,30.23Z"/><path class="cls-22" d="m117.61,194.88c-.62,7.74-1.35,15.62-3.71,23.05-1.36,4.27-2.93,9.05-4.51,13.26.34-1.53.75-3,1.12-4.54,1.09-4.37,2.64-9.12,3.68-13.46,1.26-5.86,2.27-12.39,3.42-18.31h0Z"/><path class="cls-22" d="m116.61,201.81c-3.2-3.29-7.83-8.47-11-11.89-2.74-2.94-5.84-5.52-9.22-7.69l-3.33-2.32c3.66,1.79,7.12,3.96,10.33,6.46,5,4.59,9.13,10,13.18,15.44h.04Z"/><path class="cls-22" d="m115.61,208.41c4.89-4.09,9.99-7.92,15.3-11.45,5.3-3.65,11.34-6.09,17.69-7.13-1.53.46-3,.94-4.53,1.5-7.56,2.53-13.94,7.4-20.52,11.78-2,1.34-5.95,4-7.94,5.3h0Z"/><path class="cls-22" d="m114.77,212.15c7.47-6.37,15.24-13.34,25.32-14.59-1.17.38-2.34.76-3.48,1.2-3.45,1.22-6.7,2.93-9.66,5.08-3.58,2.45-8.58,6-12.18,8.31h0Z"/><path class="cls-22" d="m113.6,216.84c-3.78-4.38-7.14-9.14-11-13.42-2.53-2.37-5.2-4.58-8-6.62,3.13,1.6,6.04,3.6,8.66,5.95,3.93,4.32,7.4,9.05,10.35,14.09h0Z"/><rect class="cls-7" x="86.54" y="289.96" width="65.21" height="65.21"/><polygon class="cls-15" points="86.54 355.17 136.98 342.3 146.01 289.97 151.75 289.97 151.75 355.17 86.54 355.17"/><rect class="cls-22" x="75.56" y="307.19" width="10.98" height="78.3"/><rect class="cls-5" x="75.56" y="307.19" width="10.98" height="78.3"/><rect class="cls-22" x="151.75" y="307.19" width="10.98" height="78.3"/><rect class="cls-5" x="151.75" y="307.19" width="10.98" height="78.3"/><rect class="cls-22" x="113.65" y="307.19" width="10.98" height="78.3"/><rect class="cls-5" x="113.65" y="307.19" width="10.98" height="78.3"/><rect class="cls-22" x="86.54" y="355.17" width="65.21" height="4.21"/><rect class="cls-5" x="86.54" y="355.17" width="65.21" height="4.21"/><rect class="cls-15" x="86.54" y="355.17" width="5.19" height="4.21"/><rect class="cls-15" x="108.46" y="355.17" width="5.19" height="4.21"/><rect class="cls-15" x="124.64" y="355.17" width="5.19" height="4.21"/><rect class="cls-15" x="146.56" y="355.17" width="5.19" height="4.21"/><polygon class="cls-22" points="146.58 264.05 97.51 264.05 69.42 124.02 114.36 103.38 146.58 264.05"/><polygon class="cls-14" points="146.58 264.05 97.51 264.05 69.42 124.02 114.36 103.38 146.58 264.05"/><polygon class="cls-22" points="287.04 264.05 146.58 264.05 114.36 103.38 254.81 103.38 287.04 264.05"/><rect class="cls-22" x="46.18" y="188.92" width="75.21" height="154.32"/><rect class="cls-14" x="46.18" y="188.92" width="75.21" height="154.32"/><polygon class="cls-22" points="323.14 343.24 302.59 343.24 271.97 188.92 323.14 188.92 323.14 343.24"/><polygon class="cls-14" points="323.14 343.24 302.59 343.24 271.97 188.92 323.14 188.92 323.14 343.24"/><rect class="cls-22" x="121.39" y="188.92" width="41.32" height="154.32"/><rect class="cls-22" x="323.14" y="188.92" width="41.32" height="154.32"/><rect class="cls-22" x="162.71" y="264.05" width="160.43" height="79.19"/><rect class="cls-22" x="162.71" y="229.81" width="160.43" height="34.56"/><g class="cls-20"><path d="m131.51,188.92l15.6-.28,15.62-.22h.47v.48l.17,18.06.07,18.06c0,12,.08,24.08,0,36.12s-.05,24.07-.2,36.11-.27,24.08-.53,36.12c-.25-12.04-.42-24.08-.52-36.12-.15-12-.17-24.07-.21-36.11s0-24.08,0-36.12l.06-18.06.18-18.06.47.47-15.6-.19-15.58-.26Z"/><path d="m323.14,188.92c.32,12.08.47,24.17.6,36.25l.18,36.25-.19,36.26-.22,18.12-.38,18.13-.4-18.13-.22-18.12-.15-36.26.18-36.25c.13-12.08.28-24.17.6-36.25Z"/><path d="m323.14,264.05c-13.37.32-26.74.47-40.11.59l-40.1.18-40.11-.18-20.09-.22-20-.37,20.06-.39,20.05-.21,40.11-.18,40.1.18c13.35.12,26.68.27,40.09.6Z"/><path d="m323.14,229.81c-13.37.32-26.74.47-40.11.6l-40.1.18-40.11-.17-20.09-.23-20-.38,20-.39,20.05-.22,40.11-.18,40.1.18c13.41.14,26.74.29,40.15.61Z"/></g><polygon class="cls-12" points="74.76 343.23 73.74 355.74 71.37 384.62 60.48 384.62 58.1 355.74 57.09 343.23 74.76 343.23"/><polygon class="cls-9" points="57.09 343.23 74.76 343.23 73.74 355.74 58.1 355.74 57.09 343.23"/><polygon class="cls-12" points="150.89 343.23 149.87 355.74 147.5 384.62 136.61 384.62 134.23 355.74 133.21 343.23 150.89 343.23"/><polygon class="cls-9" points="133.21 343.23 150.89 343.23 149.87 355.74 134.23 355.74 133.21 343.23"/><polygon class="cls-12" points="277.16 343.23 276.14 355.74 273.77 384.62 262.87 384.62 260.5 355.74 259.48 343.23 277.16 343.23"/><polygon class="cls-9" points="259.48 343.23 277.16 343.23 276.14 355.74 260.5 355.74 259.48 343.23"/><polygon class="cls-12" points="353.3 343.23 352.28 355.74 349.91 384.62 339.02 384.62 336.65 355.74 335.63 343.23 353.3 343.23"/><polygon class="cls-9" points="353.3 343.23 352.28 355.74 336.65 355.74 335.63 343.23 353.3 343.23"/><path class="cls-7" d="m206.22,343.34c1.65-.28,3.33-.41,5-.39l5.16-.14,10.5-.22c7-.14,14-.22,21-.16,3.94,0,7.88.21,11.82.38.07,0,.12.05.12.12,0,.07-.05.12-.12.12-14,.87-28,.89-42,.87h-5.73c-1.92.07-3.85-.03-5.75-.3-.07-.02-.1-.11-.08-.18.01-.04.04-.07.08-.1Z"/><path class="cls-25" d="m85.34,227.57c-.31-5.28-1.05-10.52-2.22-15.68-1.11-4.64-2.68-9.39-5.6-13.23-2.68-3.5-6.51-6.3-11-6.84-4.29-.53-8.33,1.39-11.55,4.1-4,3.36-7,7.8-9.89,12.11-3.14,4.83-6,9.84-8.55,15-.09.16.17.31.25.14,2.22-4.37,4.78-8.56,7.65-12.53,2.62-3.81,5.56-7.38,8.8-10.67,3-2.88,6.7-5.58,11-5.71s8.18,2.25,10.74,5.53c2.86,3.67,4.32,8.25,5.41,12.71,1.13,4.91,1.87,9.9,2.21,14.93.84,10.34,1.06,20.73,1.3,31.09.13,5.86.22,11.72.26,17.58,0,3,0,5.95.07,8.92-.1,2.87.01,5.74.35,8.59.09.58,1,.52,1.13,0,.35-2.7.49-5.42.4-8.14,0-2.82.07-5.63.1-8.45.05-5.47.07-10.94.06-16.42-.03-11.04-.16-22.07-.92-33.03Z"/><path class="cls-11" d="m51.66,200.45c-.93.38.33-10.63-4-12-6.13-2-20.18,1.61-28,12-1.51,2.13-2.65,4.49-3.38,7,3.86-1.87,16.64-7.79,19.85-6,2.92,1.65-15.4,7.41-21,11.1-.25,1.53-.42,3.07-.51,4.62,3.3-2.27,12.28-8.16,16.3-8.16,4.46,0-10.34,7.83-16.33,13.45.23,5.45,1.4,10.83,3.46,15.88,1.53-2.9,4.91-8.55,9.27-11.6,6.05-4.23,8.7,2.57,1.08,7.95-4.07,2.87-7,5.25-8.85,6.84,1.72,3.3,4.02,6.27,6.78,8.77,2.7-3.05,6.12-5.38,9.94-6.79,1.47-.52,3.88-1.19,6.79-2.17,1.03-3.69,1.72-7.46,2.06-11.28.17-4.48,5.47-2,3.32,6-.41,1.5-.78,2.73-1.13,3.76,2.28-.8,4.46-1.87,6.49-3.18.28-2.6-.15-8.6-1.22-14.25-1.32-7.05,4-7.55,5.2,1.32.54,4.1-.24,8.35-.5,11.11,6.07-3.54,11.09-10.72,11.09-10.72-.56-3.97-1.99-7.76-4.2-11.1-3-4.51.25-6.28,3.24-2.21,1.66,2.26,2.65,6.07,3.19,9,6.38-21.39-1.52-26.35-18.94-19.34Zm-29.07,23.43c-1.65-2.4,4.07-6.8,5.3-5.3,1.59,1.91-3.65,7.7-5.3,5.3Zm38.21-9.86c-2.32,1.68-4.54-3.88-3-4.83s4.97,3.39,3,4.83h0Z"/><path class="cls-25" d="m55.48,210.89c-.78-1.56-1.6-3.1-2.5-4.6-.82-1.48-1.79-2.88-2.88-4.17.25-.31.49-.62.75-.92.1-.12-.08-.3-.19-.18l-.85,1c-.05.03-.1.08-.12.14-1.08,1.29-2.09,2.62-3.06,4-1.71.39-3.4.88-5.06,1.46-1.71.58-3.4,1.17-5.06,1.87-.18.08-.09.36.08.29,1.65-.73,3.32-1.44,5-2s3.26-1,4.89-1.43c-.53.75-1,1.51-1.55,2.28-3.08.97-6.07,2.19-8.95,3.65-3,1.43-5.93,3.1-8.83,4.78-.06.05-.07.15-.01.21.04.05.11.07.17.04,2.85-1.67,5.78-3.19,8.78-4.55,2.8-1.31,5.7-2.39,8.53-3.64-7.12,11.11-11.39,23.93-17.09,35.8-.08.17.19.32.26.14,1.74-4.16,3.75-8.22,5.64-12.31,1.71-3.68,3.37-7.37,5.07-11,.5-1.07,1-2.15,1.54-3.22-.32,5.94-.19,12-1.16,17.84-.02.08.03.16.11.18.08.02.16-.03.18-.11,0-.03,0-.05,0-.08.41-6.34,1.53-12.58,1.48-19v-.08c1.2-2.43,2.49-4.82,3.88-7.14,2.36,5.55,4.84,11.19,5.93,17.15,0,.18.34.1.29-.09-1.61-6-3.09-12-6-17.48,1.51-2.52,3.18-4.93,5-7.23.79,1.47,1.81,2.87,2.7,4.28s1.75,2.77,2.56,4.18c1.75,3.01,3.24,6.16,4.45,9.42.06.18.35.08.28-.09-1.33-3.15-2.7-6.33-4.26-9.4Z"/><path class="cls-25" d="m111.56,224.4c-4.56-4.58-9.87-10.6-16.93-10.58-6.8,0-11.82,5.49-14.7,11.15-3,5.92-4.09,12.63-4.94,19.14-1,7.81-1.6,15.67-1.8,23.54-.13,4.37-.11,8.74,0,13.11,0,4.43.33,8.85,1,13.23.13.71,1.26.73,1.3,0,.2-3.68.06-7.37,0-11.06s0-7.25.17-10.87c.26-7.33.8-14.66,1.66-21.94.75-6.37,1.35-12.91,3.25-19.06,1.72-5.54,4.93-11.89,10.55-14.32,7.67-3.32,15.16,2.75,20.17,7.88.17.1.4-.09.27-.22Z"/><path class="cls-11" d="m125.45,231.56c-6.12-.62-4.43-3.95,1.14-2.49,2.99.81,5.81,2.17,8.31,4,.18-4.95-.66-9.89-2.46-14.51-5.12-1.28-9.76,1-14.54,3.21s-7.95-3.56-2.35-6.35c4.76-2.35,10.31-2.44,15.15-.27-.45-.77-.89-1.48-1.37-2.15-1.31-1.93-2.88-3.67-4.67-5.18-4.17.34-6.49,2.92-7.72,3.74-1.76,1.15-4.53-.21-2.78-2.71,1.37-2,4.79-2.86,7.61-3.09-5-3-10-3-12.89-1.69-4.9,2.21-3.55,15.21-3.55,15.21,0,0-12.94-6.92-17.18-1.48-1.34,1.91-2.25,4.08-2.68,6.37,4.57-1.68,10.2-2.09,10.73.65.56,2.9-7.18,2.05-11.2,2.51-.49,5.8.86,12.58,5.48,17.37,3.93-7.56,12.66-13.3,13.91-9.13s-8.14,5.22-12,10.87c1.66,1.22,3.47,2.23,5.38,3,2.1-3.14,5.6-7.48,7.28-6.16s-2.72,4.38-5.57,6.85c4.07,1.49,8.25,2.65,12.5,3.47,1-4.36,3-8.44,4.95-8.06s-1.8,4.94-3.41,8.37c5.65,1.11,11.37,1.84,17.12,2.17.35-.09,2.7-7,3.76-15.54-2.83-1.14-5.84-1.74-8.89-1.78-4.33-.21-4.74-5.14,1.74-4.45,2.71.4,5.28,1.46,7.48,3.1.06-.9.12-1.83.15-2.76h0c-2.9-1.67-6.11-2.72-9.43-3.09Zm-1.61-6.74c.66-1.47,4.61-1,4.23.86s-4.78.39-4.23-.86Zm-32.37,12.23c-.25-1.23,2.4-2.35,2.77-1.36s-2.44,3.01-2.77,1.36h0Zm18.61,10.1c-2.1-1.09.91-5.89,2.84-5.12,1.57.63-.74,6.25-2.84,5.12h0Z"/><path class="cls-25" d="m129.85,255.09c-2.9-4.86-5.78-9.75-8.83-14.52-1.42-2.22-2.91-4.4-4.45-6.54l.69-.16c.39-.08.77-.16,1.16-.22.89-.16,1.79-.29,2.69-.38s1.7-.13,2.55-.14c.91-.05,1.83,0,2.73.14.11,0,.13-.15,0-.14-.91,0-1.83-.09-2.74-.1s-1.77,0-2.65.06-1.65.13-2.47.26c-.46.07-.91.15-1.36.24-.27.04-.54.1-.81.17-1.58-2.16-3.21-4.29-4.9-6.37,5.03-2.46,10.4-4.18,15.92-5.11.1,0,.06-.15,0-.14-5.6.78-11.05,2.43-16.14,4.9-.92-1.14-1.86-2.28-2.8-3.41s-2.17-2.5-3.12-3.84c-.07-.09-.2,0-.12.08,1.31,1.44,2.53,2.95,3.68,4.52h0c-2.08,1.45-4.06,3.04-5.92,4.75-1.93,1.71-3.82,3.49-5.65,5.31-.06.06,0,.17.1.1,1.82-1.8,3.69-3.52,5.66-5.15s4-3.13,6-4.75h0c.45.6.9,1.2,1.35,1.78l.68.9v.06c.76,1,1.51,2,2.26,3-.88,1.28-1.63,2.64-2.25,4.06-.65,1.37-1.21,2.79-1.74,4.21-1.04,2.97-1.85,6.02-2.42,9.11,0,.09.12.13.14,0,.62-3.05,1.5-6.04,2.65-8.93.56-1.48,1.2-2.93,1.87-4.38s1.33-2.58,1.9-3.91c.65.87,1.3,1.74,1.94,2.62l.54.77c0,.06,0,.13.06.13h0c2,2.79,3.9,5.64,5.75,8.53-.11.2-.2.42-.25.64-.12.35-.23.7-.34,1-.39,1.39-.65,2.81-.79,4.24-.01.79-.07,1.57-.18,2.35,0,.04.03.07.07.07.04,0,.07-.03.07-.07h0c-.05-.73,0-1.47.17-2.19.1-.75.24-1.5.41-2.24s.34-1.33.54-2c.1-.33.2-.65.32-1,.06-.17.14-.35.2-.53.86,1.35,1.72,2.71,2.56,4.09,1.68,2.71,3.33,5.44,5,8.16.14.23.4.16.27-.03Z"/><path class="cls-25" d="m85.04,292.42c-.07-2.75-.51-5.53-.81-8.27s-.61-5.5-.9-8.25c-.57-5.31-.88-10.73-2.13-15.93-.92-4.53-3.17-8.68-6.47-11.92-1.72-1.69-3.96-2.75-6.36-3-2.41-.07-4.78.67-6.74,2.08-2.23,1.65-4.15,3.68-5.67,6-1.65,2.27-3.12,4.66-4.42,7.15,0,.09.1.15.15.06,2.45-4.17,5.7-7.82,9.57-10.73,1.71-1.41,3.8-2.28,6-2.51,2.18-.03,4.28.81,5.84,2.33,3.21,2.79,5.07,6.9,6.18,10.94,1.31,4.78,1.74,9.81,2.39,14.71.39,2.92.76,5.83,1.15,8.75s.62,5.87,1.23,8.73c.04.27.29.46.56.43.27-.04.46-.29.43-.56h0Z"/><path class="cls-11" d="m67.98,251c-6.33-.12-13,4.6-13,4.6,0,0,3.49-12.32-6.4-11.92-5.88.24-13.22,6.41-14.69,16,2.26-1.2,7-3.52,10.83-3.59,5.12-.09,5.47,3.92-1.6,4.53-3.21.18-6.39.71-9.48,1.57-.11,3.01.29,6.02,1.19,8.89,3.94-2.39,10.68-4.94,10.88-1.63.15,2.45-6.81,2.65-10.24,3.51,1.44,3.77,3.43,7.31,5.9,10.51,4.82-.7,9.59-1.77,14.25-3.19.02-1.73-.13-3.46-.44-5.16-.84-4.39,2.39-4.47,2.81-.25.14,1.58.04,3.17-.3,4.72,3.21-1.07,6.28-2.51,9.14-4.31-.08-3.34-.75-6.64-2-9.74-1.26-3.43,1.23-5.4,3.34-1.45,1.36,2.54.81,7.32.36,10,1.14-.88,2.15-1.91,3-3.06,6.73-9.42,2.72-19.89-3.55-20.03Zm-27.32,2.28c.23-1.78,4.64-1.44,4.42-.06s-4.68,2.06-4.42.06Zm-4.92,14.47c.43-1.14,2.33-1,2.24-.08s-2.53.82-2.24.08Zm26.24,6.2c-2.57.11-1.72-5.23-.23-5.44,1.23-.18,2.17,5.36.23,5.44Z"/><path class="cls-25" d="m59.67,274.44c-.25-.67-.47-1.34-.68-2,.2.68.37,1.37.49,2.07.03.11.24.06.19-.07Z"/><path class="cls-25" d="m57.06,265.86c-.47-1.36-1-2.71-1.52-4.06-.28-.71-.57-1.42-.89-2.13-.22-.63-.52-1.22-.88-1.78.31-.56.57-1.14.8-1.73.01-.02,0-.06-.02-.07-.02-.01-.06,0-.07.02-.73.94-1.37,1.95-1.93,3-.27.46-.53.94-.8,1.41-.56.05-1.12.14-1.67.26l-1.77.36-1.76.41c-.58.14-1.16.33-1.76.42-.13,0-.08.24,0,.19.61-.21,1.23-.38,1.86-.49.56-.12,1.13-.22,1.71-.3.57-.09,1.15-.16,1.73-.21s.87-.07,1.3-.11c-.23.42-.48.83-.71,1.24l-.1.2c-.48,0-.96.05-1.42.17-.51.09-1.02.19-1.53.3-1,.23-2.06.48-3.08.76-2.14.6-4.25,1.28-6.36,2-.12,0-.05.22.07.18,2.1-.71,4.23-1.3,6.39-1.78,1-.22,2-.46,3-.67l1.53-.32c.4-.06.79-.15,1.18-.26-1.09,2-2.11,4.05-3.06,6.14-2,4.54-3.77,9.22-5.53,13.88,0,.11.13.19.17.07,1.75-4.65,3.76-9.2,6.04-13.61.39-.8.8-1.6,1.2-2.4,0,.16.07.32.1.49.1.55.2,1.1.29,1.65.19,1.1.38,2.21.54,3.32.47,2.26.74,4.56.8,6.87-.02.05.01.11.06.13s.11-.01.13-.06c0-.02,0-.04,0-.06-.18-1.09-.18-2.24-.25-3.35s-.15-2.31-.29-3.47-.27-2.22-.45-3.32c-.1-.55-.19-1.11-.29-1.66-.03-.41-.13-.82-.31-1.19.58-1.17,1.15-2.33,1.74-3.49s1.1-2.17,1.67-3.25c.23-.46.49-.92.75-1.39.17.57.39,1.13.65,1.67.26.62.51,1.25.77,1.87.57,1.38,1.09,2.78,1.62,4.17.75,2,1.57,4,2.19,6.07-.65-2.02-1.17-4.08-1.84-6.08Z"/><path class="cls-25" d="m58.98,272.42c0-.16-.09-.32-.14-.48.06.16.14.34.14.48Z"/><polygon class="cls-22" points="101.58 291.61 100.88 305.63 99.09 378.53 59.94 378.53 58.15 305.63 57.46 291.61 101.58 291.61"/><polygon class="cls-17" points="101.58 291.61 100.88 305.63 99.09 378.53 59.94 378.53 58.15 305.63 57.46 291.61 101.58 291.61"/><polygon class="cls-14" points="101.58 291.61 100.88 305.63 58.15 308.05 57.46 291.61 101.58 291.61"/><rect class="cls-22" x="54.67" y="290.16" width="49.69" height="11.33"/><rect class="cls-17" x="54.67" y="290.16" width="49.69" height="11.33"/><rect class="cls-22" x="63.11" y="378.53" width="6.87" height="5.93"/><rect class="cls-17" x="63.11" y="378.53" width="6.87" height="5.93"/><rect class="cls-14" x="63.11" y="378.53" width="6.87" height="2.97"/><rect class="cls-22" x="89.06" y="378.53" width="6.87" height="5.93"/><rect class="cls-17" x="89.06" y="378.53" width="6.87" height="5.93"/><rect class="cls-14" x="89.06" y="378.53" width="6.87" height="2.97"/><rect class="cls-22" x="265.19" y="41.02" width="163.09" height="8.44"/><rect class="cls-13" x="265.19" y="41.02" width="163.09" height="8.44"/><polygon class="cls-22" points="284.43 49.47 284.43 70.28 280.05 70.28 275.98 49.47 284.43 49.47"/><polygon class="cls-13" points="284.43 49.47 284.43 70.28 280.05 70.28 275.98 49.47 284.43 49.47"/><polygon class="cls-15" points="275.98 49.47 284.43 49.47 284.43 53.79 276.83 53.79 275.98 49.47"/><polygon class="cls-22" points="417.48 49.47 413.41 70.28 409.03 70.28 409.03 49.47 417.48 49.47"/><polygon class="cls-13" points="417.48 49.47 413.41 70.28 409.03 70.28 409.03 49.47 417.48 49.47"/><polygon class="cls-15" points="417.48 49.47 416.64 53.79 409.03 53.79 409.03 49.47 417.48 49.47"/><path class="cls-22" d="m291.88,16.85h49.94c3.54,0,6.41,2.87,6.41,6.41v7.78s-56.35,0-56.35,0v-14.19Z"/><rect class="cls-25" x="298.3" y="16.86" width="6.19" height="14.19"/><rect class="cls-25" x="309.28" y="16.86" width="2.3" height="14.19"/><rect class="cls-25" x="334.64" y="16.86" width="6.19" height="14.19"/><rect class="cls-8" x="286.22" y="31.09" width="65.73" height="9.92"/><rect class="cls-7" x="288.67" y="33.07" width="25.28" height="5.95"/><path class="cls-22" d="m285.48,0h47.88c1.13,0,2.05.92,2.05,2.05v14.79s-49.93,0-49.93,0V0Z"/><rect class="cls-8" x="325.46" y="0" width="4.65" height="16.84"/><rect class="cls-8" x="320.6" y=".01" width="1.8" height="16.84"/><path class="cls-1" d="m273.37,145.5c-.05.05-.09.1-.14.15.02-.07.07-.12.14-.15Z"/><path class="cls-3" d="m202.43,50.96c-.39.39-.78.79-1.17,1.18.39-.4.78-.79,1.17-1.18Z"/><path class="cls-3" d="m200.92,52.29c-.47.09-.94.19-1.41.28.47-.09.94-.19,1.41-.28Z"/><path class="cls-3" d="m203.5,50c-.15.12-.3.25-.44.37.15-.12.3-.25.44-.37Z"/><path class="cls-3" d="m202.95,50.45c-.14.14-.28.27-.42.41.14-.14.28-.27.42-.41Z"/><polygon class="cls-23" points="147.07 185.95 147.1 185.97 147.11 186.06 147.04 186.02 147.07 185.95"/><path class="cls-23" d="m231.77,177.94c.31-1.04.63-2.09.94-3.13-.31,1.04-.63,2.09-.94,3.13Z"/><path class="cls-23" d="m231.28,179.73c.1-.29.2-.58.3-.87-.1.29-.2.58-.3.87Z"/><path class="cls-18" d="m201.21,191.15c-.27-.06-.53-.12-.8-.18.27.06.53.12.8.18Z"/><path class="cls-23" d="m230.85,181.09c.09-.23.19-.46.28-.68-.09.23-.19.46-.28.68Z"/><path class="cls-18" d="m203.08,191.54c-.2-.07-.41-.14-.61-.2.2.07.41.14.61.2Z"/><path class="cls-23" d="m161.51,139.42c-.11.71-.22,1.43-.33,2.14.11-.71.22-1.43.33-2.14Z"/><path class="cls-23" d="m164.67,123.43c-.25.75-.51,1.51-.76,2.26.25-.75.51-1.51.76-2.26Z"/><path class="cls-23" d="m163.38,128.28c-.15.67-.29,1.35-.44,2.02.15-.67.29-1.35.44-2.02Z"/><path class="cls-23" d="m165.62,199.88c-.12.55-.25,1.1-.37,1.65.13-.55.25-1.1.37-1.65Z"/><path class="cls-23" d="m161.95,136.61c-.1.54-.2,1.08-.3,1.62.1-.54.2-1.08.3-1.62Z"/><path class="cls-23" d="m165.12,202.43c-.11.55-.22,1.09-.34,1.64.11-.55.22-1.09.34-1.64Z"/><path class="cls-23" d="m206.61,110.45c.54-.14,1.07-.28,1.61-.43-.54.14-1.07.28-1.61.43Z"/><path class="cls-23" d="m166.01,198.03c-.1.4-.19.79-.29,1.19.1-.4.19-.79.29-1.19Z"/><path class="cls-23" d="m163.73,126.6c-.1.38-.2.76-.3,1.14.1-.38.2-.76.3-1.14Z"/><path class="cls-23" d="m162.86,131.37c-.08.32-.17.64-.25.96.08-.32.17-.64.25-.96Z"/><path class="cls-23" d="m164.68,204.92c-.07.24-.15.47-.22.71.07-.24.15-.47.22-.71Z"/><path class="cls-23" d="m209.9,109.57c.2-.13.4-.25.6-.38-.2.13-.4.25-.6.38Z"/><path class="cls-23" d="m208.67,109.97c.19-.08.38-.16.57-.24-.19.08-.38.16-.57.24Z"/><path class="cls-23" d="m162.47,133.51c.07.07.13.15.2.22-.13.04-.26.08-.39.12.06-.11.13-.23.19-.34Z"/><path class="cls-23" d="m177.17,112.55c-.19-.08-.38-.16-.57-.25.19.08.38.16.57.25Z"/><path class="cls-23" d="m201.2,110.44c.11.03.22.06.33.09-.11-.03-.22-.06-.33-.09Z"/></g></svg>